<?xml version="1.0" standalone="no"?>
<!DOCTYPE svg PUBLIC "-//W3C//DTD SVG 20010904//EN"
 "http://www.w3.org/TR/2001/REC-SVG-20010904/DTD/svg10.dtd">
<svg version="1.0" xmlns="http://www.w3.org/2000/svg"
 width="1240.000000pt" height="1240.000000pt" viewBox="0 0 1240.000000 1240.000000"
 preserveAspectRatio="xMidYMid meet">
<metadata>
Created by potrace 1.11, written by Peter Selinger 2001-2013
</metadata>
<g transform="translate(0.000000,1240.000000) scale(0.100000,-0.100000)"
fill="#000000" stroke="none">
<path d="M3881 12393 c-22 -5 -44 -15 -121 -61 -35 -21 -36 -21 -90 -2 -170
57 -323 44 -442 -37 -42 -29 -47 -30 -148 -28 -58 1 -111 -3 -117 -8 -7 -5
-13 -6 -13 -2 0 4 -7 2 -15 -5 -8 -7 -15 -9 -15 -6 0 13 -64 -28 -96 -61 l-32
-32 -127 -2 c-201 -2 -315 -39 -409 -132 l-51 -50 -75 -3 c-104 -3 -157 -12
-215 -39 -80 -36 -141 -106 -163 -185 -6 -22 -6 -130 0 -165 3 -17 16 -54 28
-83 21 -47 21 -54 7 -70 -8 -9 -29 -46 -46 -82 -37 -76 -42 -150 -16 -220 9
-25 19 -53 22 -62 3 -10 9 -18 14 -18 5 0 9 -6 9 -12 0 -7 14 -30 29 -51 28
-37 29 -40 15 -74 -17 -40 -21 -100 -9 -158 6 -35 54 -140 77 -170 5 -5 26
-32 48 -60 22 -27 40 -52 40 -55 0 -3 -4 -22 -9 -42 -5 -22 -5 -36 0 -32 5 3
5 -5 0 -18 -10 -28 13 -119 45 -173 26 -45 97 -122 136 -147 19 -13 25 -24 24
-50 -2 -47 17 -125 45 -178 24 -47 182 -210 203 -210 21 0 96 -76 96 -97 0
-41 79 -190 94 -176 3 4 6 -1 6 -10 0 -9 5 -17 11 -17 7 0 19 -8 28 -19 13
-15 94 -63 111 -66 3 0 15 -6 28 -13 12 -7 22 -10 22 -6 0 3 6 2 13 -4 6 -6
29 -13 50 -17 20 -4 37 -12 37 -17 0 -22 61 -136 86 -161 38 -39 115 -87 147
-94 15 -3 27 -9 27 -13 0 -3 6 -7 13 -7 31 -2 146 -37 142 -43 -3 -4 -58 -41
-122 -81 -65 -40 -122 -77 -128 -81 -5 -4 -47 -35 -91 -68 -45 -33 -96 -72
-114 -87 -60 -51 -228 -222 -223 -227 3 -2 -4 -11 -16 -18 -12 -7 -21 -17 -21
-22 0 -5 -8 -19 -19 -30 -55 -62 -201 -313 -201 -347 0 -8 -5 -20 -12 -27 -6
-6 -13 -17 -14 -24 -2 -7 -15 -47 -29 -88 -37 -104 -78 -274 -90 -370 -4 -29
-8 -61 -10 -70 -8 -40 -18 -181 -20 -280 -2 -103 -3 -108 -42 -180 -35 -63
-52 -83 -112 -126 -108 -77 -196 -156 -281 -251 -71 -80 -85 -97 -82 -105 1
-5 -2 -8 -7 -8 -5 0 -30 -33 -57 -72 -27 -40 -51 -75 -54 -78 -6 -6 -58 -102
-75 -137 -5 -13 -13 -23 -17 -23 -5 0 -8 -6 -8 -14 0 -8 -11 -36 -24 -63 -14
-26 -26 -55 -28 -63 -2 -8 -6 -17 -10 -20 -4 -3 -9 -15 -11 -25 -2 -11 -9 -33
-16 -50 -7 -16 -12 -30 -11 -30 1 0 -4 -13 -10 -30 -7 -16 -14 -39 -16 -50
-10 -42 -13 -50 -14 -50 -1 0 -3 -9 -5 -20 -2 -11 -9 -40 -15 -65 -6 -25 -13
-56 -15 -70 -2 -14 -6 -43 -9 -65 -19 -137 -25 -314 -13 -425 11 -96 17 -145
23 -161 5 -19 15 -76 17 -101 1 -10 6 -18 11 -18 5 0 6 -3 3 -6 -3 -4 -2 -15
3 -25 6 -10 11 -29 12 -43 1 -15 6 -26 10 -26 4 0 8 -8 8 -19 0 -10 7 -36 16
-57 19 -46 30 -75 34 -89 12 -40 135 -257 187 -327 19 -27 32 -48 29 -48 -3 0
5 -10 17 -23 12 -13 38 -43 57 -67 19 -25 42 -52 51 -61 9 -9 24 -49 33 -90
27 -120 74 -291 93 -339 3 -8 8 -24 10 -34 2 -10 12 -38 23 -62 10 -24 16 -44
13 -44 -3 0 0 -6 6 -13 6 -8 8 -17 4 -20 -3 -4 -2 -7 3 -7 5 0 11 -10 11 -22
1 -13 7 -32 12 -43 21 -40 79 -212 85 -250 4 -22 9 -56 12 -75 4 -19 8 -42 9
-50 2 -8 8 -35 15 -60 7 -25 13 -52 15 -60 2 -8 8 -28 14 -43 6 -16 9 -32 6
-37 -3 -5 -1 -11 4 -14 10 -7 46 -106 43 -119 -1 -4 3 -7 10 -7 6 0 9 -3 5 -6
-16 -16 212 -413 275 -477 7 -8 27 -31 43 -52 60 -76 270 -280 340 -330 15
-11 36 -28 47 -37 10 -10 22 -18 28 -18 6 0 10 -5 10 -11 0 -5 5 -7 10 -4 6 3
10 2 10 -4 0 -6 15 -18 33 -27 17 -9 34 -20 37 -23 3 -3 16 -12 29 -19 13 -8
40 -23 60 -35 61 -34 171 -87 183 -87 6 0 20 -8 31 -18 11 -9 17 -12 14 -5 -4
6 11 3 33 -8 22 -11 40 -24 40 -29 0 -6 5 -10 11 -10 11 0 92 -60 97 -72 2 -5
9 -8 15 -8 7 0 24 -11 38 -23 13 -13 29 -26 34 -28 6 -2 69 -43 140 -90 72
-47 146 -94 165 -104 19 -10 37 -21 40 -25 3 -4 39 -24 80 -46 41 -21 77 -42
78 -46 2 -4 10 -8 19 -8 17 0 74 -30 85 -45 4 -5 8 -7 8 -2 0 4 21 -4 48 -17
26 -14 67 -33 92 -44 25 -11 61 -27 82 -36 20 -9 39 -16 43 -16 4 0 21 -6 38
-14 18 -8 49 -20 70 -26 22 -7 66 -38 105 -75 37 -35 78 -73 92 -85 14 -12 36
-31 50 -43 14 -12 54 -44 90 -70 36 -27 73 -55 83 -63 9 -8 22 -14 27 -14 6 0
10 -4 10 -10 0 -5 5 -10 11 -10 6 0 23 -8 37 -19 39 -27 96 -59 187 -103 44
-21 88 -43 99 -49 10 -6 27 -12 37 -14 10 -2 33 -10 51 -18 40 -18 137 -51
158 -53 8 -1 42 -9 75 -18 146 -40 260 -51 505 -51 183 0 240 4 330 19 14 3
41 7 60 10 99 15 368 95 398 119 6 5 12 7 12 4 0 -8 250 120 271 138 8 8 19
12 22 8 4 -3 7 -1 7 5 0 7 6 12 14 12 8 0 16 3 18 8 2 4 23 20 48 37 103 68
198 145 304 247 62 59 84 72 176 108 58 23 140 57 182 76 43 19 82 34 88 34 5
0 10 5 10 10 0 6 4 10 10 10 18 0 110 44 110 52 0 4 7 8 15 8 8 0 49 20 91 45
41 25 78 45 80 45 4 0 150 91 213 132 14 10 33 21 41 25 8 4 26 17 40 30 14
13 28 23 33 23 4 0 13 5 20 10 7 6 48 36 92 68 44 31 86 62 93 69 13 13 96 52
142 68 32 11 99 43 170 82 56 30 195 124 198 134 2 5 10 9 18 9 8 0 17 7 20
15 4 8 10 15 15 15 16 0 130 100 234 206 73 75 85 89 150 169 22 28 43 52 47
53 5 2 8 8 8 13 0 8 60 100 71 109 4 3 17 24 29 48 12 23 26 45 31 48 5 3 9
14 9 24 0 10 4 20 9 22 7 2 62 110 66 128 0 3 6 15 13 26 6 12 8 24 5 28 -3 3
-1 6 5 6 7 0 11 3 10 8 0 4 2 14 5 22 35 85 93 302 113 428 8 49 9 53 21 82 6
14 25 68 43 120 18 52 38 100 43 107 5 7 6 17 2 23 -3 5 -1 10 4 10 6 0 10 3
9 7 0 5 2 15 5 23 7 16 50 150 53 163 1 4 2 8 4 10 2 2 6 18 14 57 3 14 10 36
15 50 5 14 15 50 22 80 7 30 14 57 15 60 4 16 16 86 15 93 -1 4 9 18 21 31 32
33 56 62 110 136 27 36 52 70 56 75 24 32 92 146 92 155 0 5 5 10 11 10 5 0 8
4 5 9 -4 5 -3 11 1 13 11 4 68 121 66 135 0 7 3 13 9 13 5 0 6 5 3 10 -3 6 -1
10 5 10 6 0 8 5 5 10 -3 5 -1 10 5 10 6 0 9 4 6 8 -2 4 2 21 9 37 28 59 80
264 93 365 10 76 8 432 -2 505 -5 33 -19 103 -32 155 -12 52 -20 98 -18 102 3
5 1 8 -3 8 -5 0 -19 36 -33 80 -13 45 -27 83 -32 86 -4 3 -8 14 -8 25 0 10 -5
19 -11 19 -5 0 -8 4 -5 8 8 14 -130 278 -177 337 -4 6 -21 31 -38 58 -17 26
-35 47 -40 47 -5 0 -9 4 -9 10 0 5 -10 22 -22 36 -56 65 -116 130 -152 163
-21 20 -48 45 -60 56 -12 11 -50 41 -86 67 -104 75 -130 99 -136 124 -3 13
-10 24 -15 24 -5 0 -9 6 -9 14 0 7 -8 24 -18 37 -15 19 -19 46 -21 134 -4 166
-5 175 -15 175 -4 0 -3 6 3 13 6 8 9 16 6 18 -2 3 -7 27 -10 54 -4 28 -9 61
-11 75 -3 14 -7 41 -10 60 -4 29 -26 131 -49 225 -14 60 -54 167 -94 257 -12
26 -21 51 -21 56 0 5 -7 15 -15 22 -9 7 -13 15 -11 18 3 3 -3 17 -14 32 -11
16 -20 31 -20 34 0 7 -99 157 -109 166 -3 3 -22 25 -41 50 -29 38 -143 163
-175 191 -5 5 -30 27 -55 49 -25 22 -63 53 -84 68 -22 15 -53 39 -70 55 -17
15 -36 27 -42 27 -6 0 -19 9 -29 20 -10 11 -24 20 -32 20 -7 0 -13 5 -13 10 0
6 -6 10 -14 10 -8 0 -16 3 -18 8 -1 4 -35 26 -74 50 -38 23 -78 48 -89 55 -17
13 -17 14 4 20 11 3 19 1 16 -3 -3 -5 7 -2 22 5 16 8 40 16 55 19 14 2 35 9
45 14 10 6 21 11 25 11 40 7 110 51 154 97 30 30 53 58 52 62 0 4 6 24 15 44
10 21 17 42 17 47 0 10 107 47 123 43 4 -1 7 3 7 8 0 6 9 10 19 10 11 0 21 3
23 8 2 4 21 16 43 27 89 45 167 150 195 263 8 30 19 46 36 54 13 6 24 15 24
20 0 4 6 8 13 8 8 0 22 9 32 20 10 11 24 20 32 20 8 0 11 5 8 10 -3 6 -1 10 5
10 9 0 82 70 116 112 41 51 76 159 75 229 -1 19 13 38 55 75 110 97 153 191
149 325 -2 43 1 82 6 85 31 19 114 153 142 230 17 46 16 159 -2 192 -15 29
-14 35 12 66 31 36 90 154 82 165 -3 5 -1 12 5 16 11 7 6 127 -6 147 -5 7 -9
15 -10 18 -3 15 -21 50 -45 85 l-27 40 19 37 c11 21 17 38 13 38 -4 0 -2 6 4
13 14 16 26 83 24 134 -2 63 -19 115 -51 161 -31 42 -109 102 -133 102 -8 0
-18 4 -24 9 -13 14 -87 24 -176 25 -77 1 -77 1 -115 41 -41 44 -114 94 -143
100 -10 2 -27 8 -37 13 -36 20 -150 34 -258 34 l-110 -1 -37 37 c-40 40 -113
72 -172 75 -20 1 -36 5 -36 9 0 4 -6 5 -12 3 -7 -2 -40 -6 -73 -9 -55 -4 -64
-2 -112 30 -28 19 -56 34 -62 34 -6 0 -11 5 -11 12 0 6 -3 9 -6 5 -3 -3 -22 0
-42 7 -72 25 -222 14 -314 -23 -16 -6 -28 -8 -28 -5 0 4 -6 1 -14 -5 -14 -11
-46 -5 -46 9 0 4 -28 20 -61 35 -102 45 -194 40 -326 -20 -29 -13 -53 -21 -53
-18 0 3 -6 0 -14 -6 -23 -19 -70 -29 -95 -19 -49 18 -173 26 -221 15 -23 -6
-73 -26 -94 -38 -65 -38 -86 -48 -86 -41 0 4 -4 1 -9 -7 -9 -14 -98 -23 -106
-11 -5 8 -150 4 -165 -5 -6 -3 -22 -9 -37 -11 -14 -3 -37 -14 -51 -24 -14 -11
-29 -20 -34 -20 -5 0 -45 -35 -90 -77 -63 -62 -86 -77 -107 -76 -87 9 -171 -5
-171 -28 0 -5 -9 -9 -19 -9 -10 0 -21 -7 -25 -15 -3 -8 -10 -15 -16 -15 -10 0
-22 -9 -98 -75 -64 -55 -172 -165 -172 -176 0 -4 -6 -12 -13 -16 -8 -4 -24
-24 -38 -43 -13 -19 -27 -37 -30 -40 -19 -17 -114 -173 -130 -212 -6 -16 -15
-28 -19 -28 -4 0 -11 -12 -15 -27 -3 -15 -15 -39 -26 -55 -11 -15 -17 -28 -13
-28 5 0 3 -5 -4 -12 -7 -7 -12 -20 -12 -30 0 -10 -5 -18 -12 -18 -6 0 -8 -3
-5 -7 4 -3 3 -11 -1 -17 -5 -6 -21 -47 -36 -91 -15 -44 -30 -87 -34 -95 -3 -8
-4 -18 -4 -22 1 -5 -2 -8 -6 -8 -6 0 -32 73 -36 102 -1 3 -4 10 -8 14 -5 4 -8
16 -8 26 0 10 -5 18 -11 18 -5 0 -8 4 -5 8 5 9 -3 28 -77 182 -52 110 -142
263 -158 268 -5 2 -9 10 -9 18 0 8 -4 14 -10 14 -5 0 -10 5 -10 11 0 6 -6 16
-12 23 -7 7 -29 33 -48 57 -55 68 -161 172 -231 225 -131 101 -191 124 -260
100 l-37 -13 -75 71 c-41 39 -83 78 -93 86 -25 20 -110 59 -139 63 -13 1 -27
6 -31 9 -3 4 -17 3 -30 -2 -13 -6 -24 -6 -24 -1 0 5 -19 7 -42 5 -66 -7 -77
-10 -84 -17 -7 -6 -114 45 -144 69 -16 13 -120 46 -120 38 0 -3 -9 0 -19 6
-13 7 -22 7 -26 0 -4 -7 -12 -7 -24 0 -10 5 -21 6 -25 3 -4 -4 -12 -8 -19 -9
-7 -1 -28 -5 -47 -8 -72 -14 -90 -15 -90 -6 0 6 -3 9 -7 8 -5 -1 -48 17 -96
41 -77 37 -99 43 -165 46 -42 1 -88 1 -101 -2z"/>
</g>
</svg>
