<?xml version="1.0" standalone="no"?>
<!DOCTYPE svg PUBLIC "-//W3C//DTD SVG 1.1//EN" "http://www.w3.org/Graphics/SVG/1.1/DTD/svg11.dtd">
<svg xmlns="http://www.w3.org/2000/svg">
<defs >
<font id="Rubik" horiz-adv-x="542" ><font-face
    font-family="Rubik Light Light"
    units-per-em="1000"
    panose-1="0 0 0 0 0 0 0 0 0 0"
    ascent="935"
    descent="-250"
    alphabetic="0" />
<glyph unicode=" " horiz-adv-x="258" />
<glyph unicode="!" horiz-adv-x="225" d="M104 143Q94 143 88 149T82 165V678Q82 688 88 694T104 700H121Q131 700 137 694T143 678V165Q143 155 137 149T121 143H104ZM93 0Q83 0 77 6T71 22V60Q71 70 77 76T93 83H131Q141 83 147 77T154 60V22Q154 12 148 6T131 0H93Z" />
<glyph unicode="&quot;" horiz-adv-x="340" d="M227 508Q219 508 215 513T210 527L195 690Q194 699 199 704T214 710H259Q268 710 273 705T278 690L263 527Q262 519 258 514T246 508H227ZM94 508Q86 508 82 513T77 527L62 690Q61 699 66 704T81 710H126Q135 710
140 705T145 690L130 527Q129 519 125 514T113 508H94Z" />
<glyph unicode="#" horiz-adv-x="701" d="M185 39Q176 39 170 45T165 60L185 191H74Q64 191 58 197T52 213V227Q52 237 58 243T74 249H193L222 445H100Q90 445 84 451T78 467V481Q78 491 84 497T100 503H231L251 634Q253 642 258 648T273 655H291Q300 655 306
649T311 634L291 503H458L478 634Q480 642 485 648T500 655H518Q527 655 533 649T538 634L518 503H627Q637 503 643 497T649 481V467Q649 457 643 451T627 445H510L481 249H601Q611 249 617 243T623 227V213Q623 203 617 197T601 191H472L453 60Q450 39 430 39H412Q403
39 397 45T392 60L412 191H245L226 60Q223 39 203 39H185ZM254 249H420L449 445H283L254 249Z" />
<glyph unicode="$" horiz-adv-x="596" d="M289 -100Q279 -100 273 -94T267 -78V-8Q196 -3 147 23T72 88T44 170Q44 178 50 184T65 190H85Q95 190 100 184T107 170Q111 142 132 115T194 69T300 50Q398 50 443 85T488 181Q488 221 465 245T393 289T270 333Q199 356
153 380T86 440T64 530Q64 601 116 651T267 709V778Q267 788 273 794T289 800H308Q318 800 324 794T330 778V708Q397 702 441 674T507 609T531 535Q531 528 526 522T510 515H490Q485 515 478 519T468 535Q462 585 416 617T295 650Q221 650 174 621T127 530Q127
490 148 465T214 420T330 377Q405 353 454 329T527 271T551 181Q551 125 525 84T449 20T330 -9V-78Q330 -88 324 -94T308 -100H289Z" />
<glyph unicode="%" horiz-adv-x="741" d="M108 0Q88 0 88 20Q88 26 92 31L585 681Q592 690 598 695T618 700H635Q655 700 655 680Q655 674 651 669L158 19Q151 10 145 5T125 0H108ZM547 -6Q482 -6 446 31T407 129Q406 155 406 172T407 218Q410 278 444 316T547
354Q616 354 650 316T687 218Q689 190 689 173T687 129Q684 69 648 32T547 -6ZM547 50Q577 50 594 62T620 94T629 132Q631 160 631 174T629 215Q628 245 610 271T547 298Q503 298 485 272T465 215Q464 189 464 175T465 132Q467 113 474 94T499 63T547 50ZM194 350Q129
350 93 385T54 480Q53 506 53 523T54 569Q57 629 91 667T194 705Q263 705 297 667T334 569Q336 541 336 524T334 480Q331 420 295 385T194 350ZM194 401Q224 401 241 413T267 445T276 483Q278 511 278 525T276 566Q275 596 257 622T194 649Q150 649 132 623T112
566Q111 540 111 526T112 483Q114 464 121 445T146 414T194 401Z" />
<glyph unicode="&amp;" horiz-adv-x="674" d="M281 -10Q217 -10 167 15T89 84T61 184Q61 231 81 265T135 326T205 375Q154 429 133 467T112 550Q112 594 134 630T196 688T286 710Q337 710 376 689T437 632T460 550Q460 504 438 471T379 412T303 363L494 176Q514
210 528 251T549 344Q551 366 571 366H590Q600 366 606 360T612 344Q611 321 607 296T595 244T573 188T540 131L638 35Q647 26 647 19Q647 10 642 5T627 0H605Q595 0 589 3T577 10L503 84Q465 44 410 17T281 -10ZM281 50Q326 50 372 69T457 129L247 332Q197 304
161 270T124 184Q124 141 146 111T204 66T281 50ZM260 407Q296 427 327 447T378 493T397 550Q397 596 365 623T286 650Q242 650 209 624T175 550Q175 530 182 511T207 467T260 407Z" />
<glyph unicode="&apos;" horiz-adv-x="207" d="M94 508Q86 508 82 513T77 527L62 690Q61 699 66 704T81 710H126Q135 710 140 705T145 690L130 527Q129 519 125 514T113 508H94Z" />
<glyph unicode="(" horiz-adv-x="319" d="M272 -159Q209 -159 168 -131T105 -46T73 99T64 309Q64 430 73 518T104 664T168 748T272 776Q281 776 287 770T294 754V740Q294 731 288 725T275 718Q233 718 204 699T157 633T131 507T123 309Q123 190 131 111T157 -14T204
-81T275 -101Q282 -101 288 -107T294 -123V-137Q294 -146 288 -152T272 -159Z" />
<glyph unicode=")" horiz-adv-x="319" d="M47 -159Q38 -159 32 -153T25 -137V-123Q25 -114 31 -108T44 -101Q86 -101 115 -81T162 -15T188 111T196 309Q196 428 188 507T162 632T115 698T44 718Q37 718 31 724T25 740V754Q25 763 31 769T47 776Q110 776 151 749T214
664T246 519T255 309Q255 188 246 100T215 -46T151 -131T47 -159Z" />
<glyph unicode="*" horiz-adv-x="446" d="M142 423L110 447Q103 452 102 461T105 477Q105 478 111 484L187 556L83 569Q79 570 78 570T75 571Q68 573 64 581T61 599L74 637Q76 645 85 649T101 651Q102 651 109 647L201 597L182 700Q181 704 181 705T181 708Q181
716 187 723T203 730H243Q252 730 258 723T265 708Q265 707 265 706T264 700L244 596L337 647Q344 651 345 651Q353 653 361 649T372 637L385 599Q387 590 383 582T371 571Q370 571 369 571T363 569L258 555L335 484Q341 478 341 477Q346 471 345 462T336 447L304
423Q296 419 287 420T273 428Q273 429 272 430T269 435L223 531L177 435Q176 431 175 430T173 428Q169 421 160 420T142 423Z" />
<glyph unicode="+" horiz-adv-x="628" d="M306 33Q296 33 290 39T284 55V274H67Q57 274 51 280T45 296V310Q45 320 51 326T67 332H284V545Q284 555 290 561T306 567H321Q331 567 337 561T343 545V332H561Q571 332 577 326T583 310V296Q583 286 577 280T561 274H343V55Q343
45 337 39T321 33H306Z" />
<glyph unicode="," horiz-adv-x="237" d="M73 -75Q65 -75 62 -69T59 -54L78 66Q80 78 85 85T103 93H148Q155 93 159 88T163 77Q163 68 159 59L116 -54Q112 -64 107 -69T90 -75H73Z" />
<glyph unicode="-" horiz-adv-x="487" d="M96 271Q86 271 80 277T74 293V307Q74 317 80 323T96 329H391Q401 329 407 323T413 307V293Q413 283 407 277T391 271H96Z" />
<glyph unicode="." horiz-adv-x="238" d="M95 0Q85 0 79 6T73 22V70Q73 80 79 86T95 93H143Q153 93 159 87T166 70V22Q166 12 160 6T143 0H95Z" />
<glyph unicode="/" horiz-adv-x="459" d="M47 -84Q39 -84 33 -78T27 -64Q27 -59 30 -52L374 771Q376 775 381 780T396 786H413Q421 786 427 780T433 766Q433 762 430 754L86 -69Q85 -73 80 -78T64 -84H47Z" />
<glyph unicode="0" horiz-adv-x="616" d="M308 -10Q240 -10 195 12T122 72T82 161T68 266Q68 293 68 321T67 377T68 434Q69 489 81 539T121 627T194 688T308 710Q376 710 421 688T494 628T534 539T548 434Q549 406 549 378T549 321T548 266Q547 211 535 161T495
73T422 12T308 -10ZM308 50Q397 50 440 109T485 271Q486 300 486 325T486 376T485 429Q483 530 440 590T308 650Q220 650 177 590T131 429Q131 402 131 377T130 326T131 271Q133 168 176 109T308 50Z" />
<glyph unicode="1" horiz-adv-x="398" d="M276 0Q266 0 260 6T254 22V618L75 480Q67 474 59 475T44 484L33 498Q27 506 28 514T37 529L250 693Q257 698 263 699T276 700H295Q305 700 311 694T317 678V22Q317 12 311 6T295 0H276Z" />
<glyph unicode="2" horiz-adv-x="560" d="M74 0Q64 0 58 6T52 22V37Q52 47 57 56T77 79L336 338Q374 373 394 399T421 450T429 507Q429 574 391 612T281 650Q236 650 203 632T151 582T126 506Q125 494 117 489T103 483H83Q73 483 68 488T62 502Q63 536 76 572T115
640T183 690T281 710Q357 710 403 681T471 606T492 507Q492 466 480 432T444 365T383 298L149 60H484Q495 60 501 54T507 37V22Q507 12 501 6T484 0H74Z" />
<glyph unicode="3" horiz-adv-x="576" d="M286 -10Q230 -10 186 4T112 43T65 97T47 161Q47 170 53 175T68 180H82Q90 180 97 176T109 157Q120 114 148 91T213 59T286 50Q363 50 412 87T462 198Q462 272 418 304T296 336H208Q198 336 192 342T186 358V373Q186 381
188 386T195 397L401 640H99Q89 640 83 646T77 662V677Q77 688 83 694T99 700H472Q483 700 489 694T495 677V662Q495 656 493 652T487 643L276 396H296Q365 396 416 375T496 309T525 198Q525 132 494 86T409 15T286 -10Z" />
<glyph unicode="4" horiz-adv-x="595" d="M406 0Q396 0 390 6T384 22V180H54Q44 180 38 186T32 202V218Q32 220 34 229T43 248L347 683Q359 700 384 700H425Q435 700 441 694T447 678V240H538Q548 240 554 234T560 218V202Q560 192 554 186T538 180H447V22Q447
12 441 6T425 0H406ZM111 240H384V629L111 240Z" />
<glyph unicode="5" horiz-adv-x="572" d="M280 -10Q207 -10 157 17T79 86T50 175Q49 184 55 189T70 194H89Q97 194 103 190T114 171Q125 128 150 101T210 62T280 50Q329 50 369 70T434 129T458 224Q458 276 434 312T370 368T280 388Q243 388 219 379T179 358T150
337T121 328H103Q94 328 87 334T81 350L111 677Q112 688 117 694T133 700H459Q469 700 475 694T481 678V662Q481 652 475 646T459 640H172L151 414Q162 421 193 434T280 448Q330 448 373 434T450 391T502 321T521 224Q521 146 489 94T402 16T280 -10Z" />
<glyph unicode="6" horiz-adv-x="582" d="M298 -10Q218 -10 164 24T83 112T55 226Q55 255 61 281T78 331T98 372T118 403L315 680Q320 685 326 692T346 700H365Q374 700 379 694T385 678Q385 674 384 671T380 665L230 453Q244 457 263 459T298 461Q358 461 403
442T479 389T525 314T541 226Q541 166 514 112T432 24T298 -10ZM298 50Q345 50 386 70T452 129T478 226Q478 283 453 322T386 381T298 401Q251 401 210 381T144 322T118 226Q118 169 143 130T210 70T298 50Z" />
<glyph unicode="7" horiz-adv-x="487" d="M153 0Q144 0 139 6T133 22Q133 25 135 31L392 640H51Q41 640 35 646T29 662V677Q29 688 35 694T51 700H437Q448 700 454 694T460 677V662Q460 650 459 643T453 625L200 25Q196 17 191 9T174 0H153Z" />
<glyph unicode="8" horiz-adv-x="618" d="M309 -10Q258 -10 213 3T133 43T80 108T60 197Q60 261 91 305T173 374Q133 397 109 435T85 526Q85 587 115 627T196 689T309 710Q371 710 422 689T503 628T533 526Q533 473 509 435T445 374Q496 350 527 306T558 197Q558
130 525 84T435 14T309 -10ZM309 50Q361 50 403 68T470 119T495 197Q495 243 470 275T403 325T309 343Q258 343 216 326T148 276T123 197Q123 152 148 119T215 68T309 50ZM309 403Q352 404 388 419T447 461T470 526Q470 565 449 592T391 635T309 650Q265 650 228
635T170 593T148 526Q148 487 169 460T228 418T309 403Z" />
<glyph unicode="9" horiz-adv-x="572" d="M201 0Q192 0 187 6T181 22Q181 27 183 30T186 35L344 257Q314 249 279 249Q219 249 175 269T101 322T57 396T42 479Q42 521 56 562T100 636T174 690T279 710Q339 710 383 690T458 637T502 562T517 479Q517 440 507 408T484
352T458 311L252 20Q248 15 242 8T221 0H201ZM279 309Q326 309 366 330T430 389T454 479Q454 532 430 570T366 629T279 650Q232 650 193 629T129 570T105 479Q105 427 129 389T192 330T279 309Z" />
<glyph unicode=":" horiz-adv-x="241" d="M96 350Q86 350 80 356T74 372V420Q74 430 80 436T96 443H144Q154 443 160 437T167 420V372Q167 362 161 356T144 350H96ZM96 0Q86 0 80 6T74 22V70Q74 80 80 86T96 93H144Q154 93 160 87T167 70V22Q167 12 161 6T144 0H96Z" />
<glyph unicode=";" horiz-adv-x="259" d="M88 -75Q80 -75 77 -69T74 -54L93 66Q95 78 100 85T118 93H163Q170 93 174 88T178 77Q178 68 174 59L131 -54Q127 -64 122 -69T105 -75H88ZM108 350Q98 350 92 356T86 372V420Q86 430 92 436T108 443H156Q166 443 172
437T179 420V372Q179 362 173 356T156 350H108Z" />
<glyph unicode="&lt;" horiz-adv-x="481" d="M390 84Q383 84 376 88T363 96L68 300Q52 311 46 322T39 346V358Q39 372 45 382T68 404L363 608Q368 611 375 615T390 620Q398 620 404 615T410 600V583Q410 573 406 567T389 552L100 352L389 152Q401 144 405 138T410
121V104Q410 94 404 89T390 84Z" />
<glyph unicode="=" horiz-adv-x="571" d="M98 396Q88 396 82 402T76 418V432Q76 442 82 448T98 454H473Q483 454 489 448T495 432V418Q495 408 489 402T473 396H98ZM98 146Q88 146 82 152T76 168V182Q76 192 82 198T98 204H473Q483 204 489 198T495 182V168Q495
158 489 152T473 146H98Z" />
<glyph unicode="&gt;" horiz-adv-x="480" d="M91 84Q83 84 77 89T71 104V121Q71 131 75 137T92 152L381 352L92 552Q80 560 76 566T71 583V600Q71 610 77 615T91 620Q98 620 106 616T118 608L413 404Q429 393 435 383T442 358V346Q442 333 436 322T413 300L118
96Q114 93 106 89T91 84Z" />
<glyph unicode="?" horiz-adv-x="503" d="M247 143Q237 143 231 149T225 165Q225 177 225 189T225 213Q225 259 242 294T284 357T335 411T380 464T403 522Q408 564 387 593T330 637T255 652Q197 652 153 621T96 513Q94 500 87 496T72 491H56Q47 491 41 496T35
511Q36 553 52 589T98 652T167 694T255 710Q310 710 350 694T417 652T455 592T464 523Q461 481 442 449T397 389T346 335T303 279T286 213Q286 201 286 189T286 165Q286 155 280 149T264 143H247ZM235 0Q225 0 219 6T213 22V60Q213 70 219 76T235 83H273Q283 83
289 77T296 60V22Q296 12 290 6T273 0H235Z" />
<glyph unicode="@" horiz-adv-x="826" d="M403 -113Q303 -113 231 -79T117 23T64 187Q63 201 62 224T61 274T62 322T64 358Q72 429 98 485T167 581T269 640T403 661Q489 661 553 641T662 583T730 488T757 358Q759 331 759 304T759 255T757 225Q754 177 739 145T697
96T628 79Q595 79 573 91T539 117T522 138Q514 125 500 109T460 81T397 69Q323 69 278 121T233 273Q233 372 278 425T397 478Q439 478 463 462T500 429V448Q500 458 506 464T522 470H539Q549 470 555 464T561 448V230Q561 183 580 160T628 137Q658 137 672 154T691
194T696 231Q697 243 698 278T696 353Q690 433 659 489T565 574T403 603Q322 603 263 574T170 489T125 353Q123 336 123 305T122 243T125 192Q138 74 209 10T403 -55Q479 -55 523 -42T590 -11T625 15Q629 18 634 22T649 27H675Q684 27 690 21T696 6Q696 2 695 -1T691
-8Q665 -35 628 -59T536 -98T403 -113ZM397 127Q456 127 478 168T500 273Q500 337 478 378T397 420Q340 420 317 379T294 273Q294 236 304 203T336 148T397 127Z" />
<glyph unicode="A" horiz-adv-x="650" d="M44 0Q36 0 30 6T24 20Q24 25 26 31L279 680Q283 690 289 695T308 700H342Q354 700 360 695T371 680L624 31Q626 25 626 20Q626 12 620 6T606 0H586Q576 0 571 5T564 15L502 175H148L86 15Q85 11 80 6T64 0H44ZM172 235H478L325
629L172 235Z" />
<glyph unicode="B" horiz-adv-x="653" d="M116 0Q106 0 100 6T94 22V677Q94 688 100 694T116 700H377Q447 700 491 675T557 610T578 521Q578 478 565 448T531 398T490 369Q530 349 561 305T592 198Q592 148 569 103T499 29T384 0H116ZM157 60H374Q448 60 488 99T529
198Q529 259 489 297T374 336H157V60ZM157 396H364Q438 396 476 429T515 521Q515 580 477 610T364 640H157V396Z" />
<glyph unicode="C" horiz-adv-x="651" d="M331 -10Q240 -10 183 25T97 122T66 261Q65 302 65 349T66 439Q69 517 97 578T182 675T331 710Q402 710 452 690T533 638T580 568T598 494Q599 485 593 480T577 474H557Q549 474 543 478T535 495Q516 584 464 617T331
650Q240 650 187 599T129 434Q126 352 129 266Q133 153 186 102T331 50Q411 50 463 83T535 205Q537 217 543 221T557 226H577Q586 226 592 221T598 206Q596 170 581 133T534 63T452 10T331 -10Z" />
<glyph unicode="D" horiz-adv-x="677" d="M116 0Q106 0 100 6T94 22V677Q94 688 100 694T116 700H329Q435 700 495 669T580 578T607 430Q608 385 608 351T607 271Q605 179 580 119T496 30T334 0H116ZM157 60H329Q409 60 455 81T522 150T544 276Q545 306 545 328T545
373T544 425Q542 535 493 587T324 640H157V60Z" />
<glyph unicode="E" horiz-adv-x="592" d="M116 0Q106 0 100 6T94 22V677Q94 688 100 694T116 700H506Q517 700 523 694T529 677V662Q529 652 523 646T506 640H157V385H484Q495 385 501 379T507 362V347Q507 337 501 331T484 325H157V60H514Q525 60 531 54T537
37V22Q537 12 531 6T514 0H116Z" />
<glyph unicode="F" horiz-adv-x="570" d="M116 0Q106 0 100 6T94 22V677Q94 688 100 694T116 700H502Q513 700 519 694T525 677V662Q525 652 519 646T502 640H157V371H482Q493 371 499 365T505 348V333Q505 323 499 317T482 311H157V22Q157 12 151 6T134 0H116Z" />
<glyph unicode="G" horiz-adv-x="664" d="M334 -10Q248 -10 190 23T101 117T67 255Q66 300 66 350T67 445Q70 524 100 583T190 676T334 710Q403 710 452 690T532 639T578 577T594 525Q595 516 589 511T573 505H551Q542 505 538 509T530 525Q520 556 497 584T434
631T334 650Q245 650 190 602T130 440Q127 350 130 260Q134 148 189 99T334 50Q393 50 440 72T514 141T541 260V311H367Q357 311 351 317T345 334V348Q345 359 351 365T367 371H581Q592 371 598 365T604 348V260Q604 180 573 119T481 24T334 -10Z" />
<glyph unicode="H" horiz-adv-x="700" d="M116 0Q106 0 100 6T94 22V677Q94 688 100 694T116 700H134Q145 700 151 694T157 677V385H543V677Q543 688 549 694T565 700H583Q594 700 600 694T606 677V22Q606 12 600 6T583 0H565Q555 0 549 6T543 22V325H157V22Q157
12 151 6T134 0H116Z" />
<glyph unicode="I" horiz-adv-x="251" d="M116 0Q106 0 100 6T94 22V678Q94 688 100 694T116 700H135Q145 700 151 694T157 678V22Q157 12 151 6T135 0H116Z" />
<glyph unicode="J" horiz-adv-x="618" d="M288 -10Q239 -10 196 2T120 39T67 102T45 194Q45 203 50 209T66 216H86Q96 216 101 210T108 195Q112 143 137 111T202 65T288 50Q376 50 421 107T467 256V640H98Q88 640 82 646T76 662V678Q76 688 82 694T98 700H507Q518
700 524 694T530 677V255Q530 177 502 117T421 24T288 -10Z" />
<glyph unicode="K" horiz-adv-x="575" d="M116 0Q106 0 100 6T94 22V677Q94 688 100 694T116 700H134Q145 700 151 694T157 677V417L460 685Q464 688 473 694T498 700H514Q522 700 528 694T534 680Q534 672 529 667L190 365L550 34Q556 28 556 20Q556 12 550 6T536
0H519Q503 0 494 6T481 15L157 311V22Q157 12 151 6T134 0H116Z" />
<glyph unicode="L" horiz-adv-x="548" d="M116 0Q106 0 100 6T94 22V678Q94 688 100 694T116 700H135Q145 700 151 694T157 678V60H502Q513 60 519 54T525 37V22Q525 12 519 6T502 0H116Z" />
<glyph unicode="M" horiz-adv-x="780" d="M117 0Q107 0 101 6T94 22V677Q94 688 100 694T117 700H142Q152 700 157 695T163 687L390 245L618 687Q620 690 624 695T639 700H663Q674 700 680 694T686 677V22Q686 12 680 6T663 0H645Q635 0 629 6T623 22V564L432
188Q428 178 421 173T401 168H379Q367 168 360 173T348 188L157 564V22Q157 12 151 6T135 0H117Z" />
<glyph unicode="N" horiz-adv-x="684" d="M116 0Q106 0 100 6T94 22V677Q94 688 100 694T116 700H137Q147 700 152 695T158 688L527 124V677Q527 688 533 694T549 700H567Q578 700 584 694T590 677V23Q590 13 584 7T568 0H546Q536 0 532 5T525 12L157 574V22Q157
12 151 6T134 0H116Z" />
<glyph unicode="O" horiz-adv-x="662" d="M331 -10Q248 -10 190 19T101 110T67 266Q66 311 66 350T67 434Q70 527 103 588T194 680T331 710Q409 710 467 680T559 589T595 434Q597 389 597 350T595 266Q593 172 562 111T472 20T331 -10ZM331 50Q417 50 472 102T532
271Q534 316 534 350T532 429Q530 507 504 556T433 627T331 650Q275 650 231 628T160 556T130 429Q129 384 129 350T130 271Q134 154 190 102T331 50Z" />
<glyph unicode="P" horiz-adv-x="628" d="M116 0Q106 0 100 6T94 22V677Q94 688 100 694T116 700H359Q429 700 480 677T560 607T589 493Q589 425 561 379T481 310T359 286H157V22Q157 12 151 6T134 0H116ZM157 346H354Q441 346 483 384T526 493Q526 564 484 602T354
640H157V346Z" />
<glyph unicode="Q" horiz-adv-x="662" d="M547 -65Q536 -65 528 -57T515 -42L471 19Q411 -10 331 -10Q248 -10 190 19T101 110T67 266Q66 311 66 350T67 434Q70 527 103 588T194 680T331 710Q409 710 467 680T559 589T595 434Q597 389 597 350T595 266Q590 123
522 56L586 -34Q587 -35 588 -37T589 -45Q589 -53 583 -59T569 -65H547ZM331 50Q417 50 472 102T532 271Q534 316 534 350T532 429Q530 507 504 556T433 627T331 650Q275 650 231 628T160 556T130 429Q129 384 129 350T130 271Q134 154 190 102T331 50Z" />
<glyph unicode="R" horiz-adv-x="640" d="M116 0Q106 0 100 6T94 22V677Q94 688 100 694T116 700H349Q454 700 516 650T579 498Q579 418 539 370T428 305L589 31Q592 25 592 20Q592 12 586 6T572 0H560Q544 0 536 8T522 27L363 296H157V22Q157 12 151 6T134 0H116ZM157
356H344Q431 356 473 391T516 498Q516 569 474 604T344 640H157V356Z" />
<glyph unicode="S" horiz-adv-x="605" d="M304 -10Q223 -10 167 16T80 83T48 170Q48 178 54 184T69 190H89Q99 190 104 184T111 170Q115 142 136 115T198 69T304 50Q402 50 447 85T492 181Q492 221 469 245T397 289T274 333Q203 356 157 380T90 440T68 530Q68
581 95 621T173 686T299 710Q358 710 402 694T475 652T519 595T535 535Q535 528 530 522T514 515H494Q489 515 482 519T472 535Q466 585 420 617T299 650Q225 650 178 621T131 530Q131 490 152 465T218 420T334 377Q409 353 458 329T531 271T555 181Q555 120 525
78T438 13T304 -10Z" />
<glyph unicode="T" horiz-adv-x="557" d="M269 0Q259 0 253 6T247 22V640H49Q39 640 33 646T27 662V677Q27 688 33 694T49 700H507Q518 700 524 694T530 677V662Q530 652 524 646T507 640H310V22Q310 12 304 6T287 0H269Z" />
<glyph unicode="U" horiz-adv-x="691" d="M346 -10Q265 -10 208 20T119 112T88 271V677Q88 688 94 694T110 700H128Q139 700 145 694T151 677V268Q151 156 203 103T346 50Q435 50 487 103T540 268V677Q540 688 546 694T563 700H581Q591 700 597 694T603 677V271Q603
174 573 112T485 20T346 -10Z" />
<glyph unicode="V" horiz-adv-x="638" d="M305 0Q292 0 284 6T271 24L39 669Q37 675 37 680Q37 688 43 694T57 700H78Q88 700 93 695T100 685L319 73L538 685Q540 689 545 694T560 700H581Q589 700 595 694T601 680Q601 675 599 669L367 24Q363 12 355 6T333 0H305Z" />
<glyph unicode="W" horiz-adv-x="788" d="M215 0Q203 0 197 5T187 24L50 668Q49 672 49 675T48 680Q48 688 54 694T68 700H89Q108 700 111 685L228 115L352 522Q355 531 362 538T383 545H405Q419 545 426 538T436 522L560 115L677 685Q680 700 699 700H720Q728
700 734 694T740 680Q740 679 740 676T738 668L601 24Q598 11 592 6T573 0H558Q546 0 539 6T527 24L394 446L261 24Q257 12 250 6T230 0H215Z" />
<glyph unicode="X" horiz-adv-x="609" d="M50 0Q42 0 36 6T30 20Q30 24 31 27T34 33L267 356L43 667Q39 673 39 680Q39 688 45 694T59 700H83Q90 700 95 697T106 685L307 405L504 685Q509 693 514 696T527 700H549Q557 700 563 694T569 680Q569 673 565 667L344
354L576 33Q578 31 579 28T580 20Q580 12 574 6T560 0H536Q529 0 524 4T513 15L304 304L95 15Q90 8 85 4T72 0H50Z" />
<glyph unicode="Y" horiz-adv-x="632" d="M306 0Q296 0 290 6T284 22V267L40 667Q39 670 38 673T36 680Q36 688 42 694T56 700H76Q83 700 89 697T99 685L316 332L533 685Q538 693 543 696T556 700H576Q584 700 590 694T596 680Q596 676 595 673T592 667L348 267V22Q348
12 342 6T325 0H306Z" />
<glyph unicode="Z" horiz-adv-x="579" d="M64 0Q54 0 48 6T42 23V43Q42 58 48 67T57 81L451 640H73Q63 640 57 646T51 662V677Q51 688 57 694T73 700H504Q515 700 521 694T527 677V657Q527 644 523 636T514 621L122 60H514Q525 60 531 54T537 37V22Q537 12 531
6T514 0H64Z" />
<glyph unicode="[" horiz-adv-x="301" d="M100 -159Q90 -159 84 -153T78 -137V754Q78 764 84 770T100 776H251Q261 776 267 770T273 754V740Q273 730 267 724T251 718H139V-101H251Q261 -101 267 -107T273 -123V-137Q273 -147 267 -153T251 -159H100Z" />
<glyph unicode="\" horiz-adv-x="459" d="M395 -84Q385 -84 380 -79T373 -69L29 754Q26 762 26 766Q26 774 32 780T46 786H63Q73 786 78 781T85 771L429 -52Q432 -59 432 -64Q432 -72 426 -78T412 -84H395Z" />
<glyph unicode="]" horiz-adv-x="301" d="M50 -159Q40 -159 34 -153T28 -137V-123Q28 -113 34 -107T50 -101H162V718H50Q40 718 34 724T28 740V754Q28 764 34 770T50 776H201Q211 776 217 770T223 754V-137Q223 -147 217 -153T201 -159H50Z" />
<glyph unicode="^" horiz-adv-x="418" d="M87 575Q73 575 73 586Q73 594 85 606L172 691Q183 702 190 703T204 705H214Q222 705 229 704T246 691L333 606Q345 594 345 586Q345 575 331 575H314Q308 575 301 577T289 582L209 642L129 582Q125 579 118 577T104 575H87Z" />
<glyph unicode="_" horiz-adv-x="753" d="M89 -28Q79 -28 73 -22T67 -6V8Q67 18 73 24T89 30H664Q674 30 680 24T686 8V-6Q686 -16 680 -22T664 -28H89Z" />
<glyph unicode="`" horiz-adv-x="311" d="M215 595Q205 595 199 596T184 605L75 694Q70 699 70 706Q70 725 89 725H130Q145 725 152 721T167 707L236 624Q241 619 241 611Q241 595 225 595H215Z" />
<glyph unicode="a" horiz-adv-x="536" d="M221 -10Q173 -10 133 10T67 63T42 139Q42 207 97 248T240 301L398 323V358Q398 411 366 441T262 472Q210 472 178 452T134 398Q129 383 115 383H99Q87 383 82 389T77 405Q77 419 87 440T120 481T177 516T262 530Q321
530 359 514T419 473T450 416T459 355V22Q459 12 453 6T437 0H420Q410 0 404 6T398 22V69Q386 51 364 33T308 3T221 -10ZM231 48Q277 48 315 68T375 129T398 234V268L269 250Q187 239 145 212T103 144Q103 111 122 90T170 59T231 48Z" />
<glyph unicode="b" horiz-adv-x="580" d="M311 -10Q249 -10 209 12T143 69V22Q143 12 137 6T121 0H104Q94 0 88 6T82 22V688Q82 698 88 704T104 710H121Q131 710 137 704T143 688V451Q168 484 208 507T311 530Q370 530 410 509T475 453T512 375T525 288Q526 273
526 260T525 232Q524 188 512 145T475 67T410 11T311 -10ZM305 48Q364 48 398 74T447 142T464 232Q465 260 464 288Q462 336 447 378T398 446T305 472Q250 472 215 446T162 381T143 302Q142 287 142 263T143 224Q145 183 161 143T213 75T305 48Z" />
<glyph unicode="c" horiz-adv-x="536" d="M278 -10Q208 -10 159 17T85 97T57 220Q56 235 56 260T57 300Q59 372 84 423T159 502T278 530Q331 530 369 516T433 478T471 426T485 371Q486 361 479 355T463 349H449Q439 349 435 353T425 370Q404 427 368 449T278 472Q210
472 166 431T118 295Q116 260 118 225Q121 131 165 90T278 48Q331 48 367 70T425 150Q430 162 434 166T449 171H463Q472 171 479 165T485 149Q484 127 476 105T452 62T411 25T354 0T278 -10Z" />
<glyph unicode="d" horiz-adv-x="580" d="M269 -10Q211 -10 171 11T105 67T69 145T55 232Q54 247 54 260T55 288Q57 332 68 375T105 453T170 509T269 530Q331 530 371 507T437 451V688Q437 698 443 704T459 710H476Q486 710 492 704T498 688V22Q498 12 492 6T476
0H459Q449 0 443 6T437 22V69Q412 35 372 13T269 -10ZM275 48Q332 48 367 75T419 142T437 224Q438 239 438 263T437 302Q436 342 419 381T366 446T275 472Q217 472 183 446T133 378T116 288Q115 260 116 232Q118 184 133 142T182 74T275 48Z" />
<glyph unicode="e" horiz-adv-x="546" d="M274 -10Q177 -10 120 53T55 220Q54 235 54 260T55 300Q60 368 87 420T161 501T274 530Q344 530 393 499T468 410T495 272V257Q495 247 489 241T472 235H116Q116 235 116 231T116 225Q118 180 137 140T191 74T274 48Q317
48 345 61T391 89T413 113Q422 126 427 128T443 131H459Q468 131 474 126T480 111Q479 97 465 77T424 36T359 3T274 -10ZM116 291H434V295Q434 345 415 385T360 448T274 472Q224 472 189 449T135 385T116 295V291Z" />
<glyph unicode="f" horiz-adv-x="360" d="M152 0Q142 0 136 6T130 22V462H41Q31 462 25 468T19 484V498Q19 508 25 514T41 520H130V577Q130 622 142 659T187 718T281 740H333Q343 740 349 734T355 718V704Q355 694 349 688T333 682H281Q228 682 210 654T191 572V520H323Q333
520 339 514T345 498V484Q345 474 339 468T323 462H191V22Q191 12 185 6T169 0H152Z" />
<glyph unicode="g" horiz-adv-x="581" d="M275 -220Q211 -220 171 -203T108 -162T76 -113T66 -73Q65 -63 72 -57T88 -50H102Q110 -50 116 -53T126 -71Q132 -87 145 -108T188 -146T270 -162Q325 -162 362 -148T418 -99T438 0V69Q413 35 373 13T270 -10Q212 -10
172 11T106 67T69 145T56 232Q55 260 56 288Q57 332 69 375T106 453T171 509T270 530Q332 530 372 507T438 451V497Q438 507 444 513T460 520H476Q486 520 492 514T499 497V10Q499 -54 480 -106T413 -189T275 -220ZM276 48Q333 48 368 75T419 142T438 224Q439 239
439 260T438 296Q436 337 420 377T368 445T276 472Q218 472 184 446T134 378T117 288Q116 260 117 232Q119 184 134 142T183 74T276 48Z" />
<glyph unicode="h" horiz-adv-x="591" d="M104 0Q94 0 88 6T82 22V688Q82 698 88 704T104 710H121Q131 710 137 704T143 688V451Q170 486 208 508T311 530Q379 530 424 501T492 421T515 306V22Q515 12 509 6T493 0H476Q466 0 460 6T454 22V301Q454 381 415 426T301
472Q230 472 187 427T143 301V22Q143 12 137 6T121 0H104Z" />
<glyph unicode="i" horiz-adv-x="223" d="M103 0Q93 0 87 6T81 22V498Q81 508 87 514T103 520H120Q130 520 136 514T142 498V22Q142 12 136 6T120 0H103ZM92 627Q82 627 76 633T70 649V687Q70 697 76 703T92 710H130Q140 710 146 704T153 687V649Q153 639 147
633T130 627H92Z" />
<glyph unicode="j" horiz-adv-x="233" d="M-4 -190Q-14 -190 -20 -184T-26 -168V-154Q-26 -144 -20 -138T-4 -132H0Q41 -132 60 -117T84 -77T90 -22V498Q90 508 96 514T112 520H129Q139 520 145 514T151 498V-22Q151 -69 139 -107T94 -167T0 -190H-4ZM101 627Q91
627 85 633T79 649V687Q79 697 85 703T101 710H139Q149 710 155 704T162 687V649Q162 639 156 633T139 627H101Z" />
<glyph unicode="k" horiz-adv-x="487" d="M104 0Q94 0 88 6T82 22V688Q82 698 88 704T104 710H121Q131 710 137 704T143 688V334L366 503Q380 514 386 517T408 520H427Q436 520 441 515T447 500Q447 496 445 491T434 480L181 288L459 40Q472 28 472 20Q472 11
467 6T452 0H436Q421 0 415 2T394 17L143 240V22Q143 12 137 6T121 0H104Z" />
<glyph unicode="l" horiz-adv-x="225" d="M104 0Q94 0 88 6T82 22V688Q82 698 88 704T104 710H121Q131 710 137 704T143 688V22Q143 12 137 6T121 0H104Z" />
<glyph unicode="m" horiz-adv-x="878" d="M103 0Q93 0 87 6T81 22V498Q81 508 87 514T103 520H120Q130 520 136 514T142 498V463Q167 495 201 512T285 530Q397 530 445 436Q468 479 512 504T615 530Q668 530 710 506T777 433T802 313V22Q802 12 796 6T780 0H763Q753
0 747 6T741 22V303Q741 369 722 405T672 457T605 472Q575 472 544 457T493 406T472 303V22Q472 12 466 6T450 0H433Q423 0 417 6T411 22V303Q411 369 391 405T340 457T275 472Q245 472 214 457T163 406T142 304V22Q142 12 136 6T120 0H103Z" />
<glyph unicode="n" horiz-adv-x="590" d="M103 0Q93 0 87 6T81 22V498Q81 508 87 514T103 520H120Q130 520 136 514T142 498V451Q169 486 207 508T310 530Q378 530 423 501T491 421T514 306V22Q514 12 508 6T492 0H475Q465 0 459 6T453 22V301Q453 381 414 426T300
472Q229 472 186 427T142 301V22Q142 12 136 6T120 0H103Z" />
<glyph unicode="o" horiz-adv-x="558" d="M279 -10Q207 -10 159 20T85 102T57 218Q56 233 56 260T57 302Q59 367 84 418T158 500T279 530Q351 530 399 500T473 419T501 302Q502 287 502 260T501 218Q499 154 474 102T400 20T279 -10ZM279 48Q349 48 393 93T440
223Q441 238 441 260T440 297Q437 383 393 427T279 472Q209 472 165 428T118 297Q117 282 117 260T118 223Q121 138 165 93T279 48Z" />
<glyph unicode="p" horiz-adv-x="581" d="M104 -190Q94 -190 88 -184T82 -168V498Q82 508 88 514T104 520H121Q131 520 137 514T143 498V451Q168 485 208 507T311 530Q370 530 410 510T475 455T512 379T525 293Q526 278 526 260T525 227Q524 183 512 141T475 65T410
11T311 -10Q249 -10 209 13T143 69V-168Q143 -178 137 -184T121 -190H104ZM305 48Q364 48 398 74T447 142T464 232Q465 260 464 288Q462 336 447 378T398 446T305 472Q248 472 213 445T162 378T143 296Q142 281 142 257T143 218Q144 178 161 139T214 74T305 48Z"
/>
<glyph unicode="q" horiz-adv-x="581" d="M460 -190Q450 -190 444 -184T438 -168V69Q413 36 373 13T270 -10Q212 -10 172 10T106 65T70 141T56 227Q55 242 55 260T56 293Q58 337 69 379T106 455T171 509T270 530Q332 530 372 508T438 451V498Q438 508 444 514T460
520H477Q487 520 493 514T499 498V-168Q499 -178 493 -184T477 -190H460ZM276 48Q332 48 367 74T419 139T438 218Q439 233 439 257T438 296Q437 337 420 377T368 445T276 472Q218 472 184 446T134 378T117 288Q116 260 117 232Q119 184 134 142T183 74T276 48Z"
/>
<glyph unicode="r" horiz-adv-x="348" d="M103 0Q93 0 87 6T81 22V497Q81 507 87 513T103 520H119Q129 520 135 514T142 497V451Q160 486 194 503T278 520H315Q325 520 331 514T337 498V484Q337 474 331 468T315 462H272Q212 462 177 427T142 332V22Q142 12 136
6T119 0H103Z" />
<glyph unicode="s" horiz-adv-x="492" d="M246 -10Q194 -10 157 4T95 37T60 76T47 105Q46 116 54 121T69 127H84Q90 127 94 125T106 114Q119 97 136 82T179 57T246 48Q306 48 345 71T384 139Q384 167 369 184T316 214T216 241Q153 256 120 277T74 325T62 385Q62
420 82 453T141 508T241 530Q290 530 324 517T381 486T413 449T425 420Q426 410 419 404T403 398H388Q380 398 375 401T366 411Q356 427 342 441T305 463T241 472Q181 472 152 448T123 385Q123 363 135 347T180 317T276 288Q340 274 377 254T429 205T445 139Q445
99 423 65T356 11T246 -10Z" />
<glyph unicode="t" horiz-adv-x="359" d="M256 0Q204 0 174 22T132 82T120 167V462H42Q32 462 26 468T20 484V498Q20 508 26 514T42 520H120V688Q120 698 126 704T142 710H159Q169 710 175 704T181 688V520H305Q315 520 321 514T327 498V484Q327 474 321 468T305
462H181V171Q181 118 198 88T261 58H315Q325 58 331 52T337 36V22Q337 12 331 6T315 0H256Z" />
<glyph unicode="u" horiz-adv-x="585" d="M276 -10Q208 -10 164 19T98 100T76 214V498Q76 508 82 514T98 520H115Q125 520 131 514T137 498V219Q137 48 286 48Q357 48 400 93T443 219V498Q443 508 449 514T465 520H482Q492 520 498 514T504 498V22Q504 12 498
6T482 0H465Q455 0 449 6T443 22V69Q416 34 379 12T276 -10Z" />
<glyph unicode="v" horiz-adv-x="536" d="M260 0Q244 0 236 7T222 25L38 489Q36 495 36 500Q36 508 42 514T56 520H77Q87 520 92 515T99 505L268 73L437 505Q439 509 444 514T459 520H480Q488 520 494 514T500 500Q500 495 498 489L314 25Q310 14 301 7T276 0H260Z" />
<glyph unicode="w" horiz-adv-x="786" d="M216 0Q203 0 196 6T184 25L43 489Q41 495 41 500Q41 508 47 514T61 520H80Q90 520 95 515T102 505L225 89L356 500Q358 506 364 513T383 520H403Q416 520 422 513T430 500L561 89L684 505Q685 509 690 514T706 520H725Q733
520 739 514T745 500Q745 495 743 489L602 25Q598 12 591 6T570 0H553Q540 0 532 6T519 25L393 419L267 25Q263 12 255 6T233 0H216Z" />
<glyph unicode="x" horiz-adv-x="518" d="M55 0Q47 0 41 6T35 20Q35 24 36 28T43 40L219 266L52 480Q47 487 46 491T44 500Q44 508 50 514T64 520H85Q95 520 100 515T110 505L260 312L410 504Q415 509 420 514T435 520H455Q463 520 469 514T475 500Q475 496 474
492T467 480L298 263L474 40Q479 33 480 29T482 20Q482 12 476 6T462 0H441Q431 0 426 5T416 15L258 217L100 15Q96 10 91 5T75 0H55Z" />
<glyph unicode="y" horiz-adv-x="532" d="M169 -190Q161 -190 155 -184T149 -170Q149 -166 150 -162T155 -150L232 30L41 480Q35 495 35 500Q35 508 41 514T55 520H76Q86 520 91 516T99 505L267 109L439 505Q442 511 447 515T462 520H482Q490 520 496 514T502
500Q502 495 496 480L212 -175Q209 -181 204 -185T189 -190H169Z" />
<glyph unicode="z" horiz-adv-x="490" d="M64 0Q54 0 48 6T42 22V39Q42 47 46 55T56 70L350 462H74Q64 462 58 468T52 484V498Q52 508 58 514T74 520H410Q420 520 426 514T432 498V481Q432 473 428 466T418 450L126 58H430Q440 58 446 52T452 36V22Q452 12 446
6T430 0H64Z" />
<glyph unicode="{" horiz-adv-x="344" d="M290 -159Q231 -159 197 -140T147 -83T127 8T122 131Q122 188 108 216T66 263L61 266Q37 282 37 303V315Q37 336 61 352L67 356Q95 376 108 403T122 487Q122 556 126 609T147 700T197 756T290 776H295Q305 776 311 770T317
754V740Q317 730 311 724T295 718H290Q239 718 217 692T189 611T183 466Q183 408 165 370T108 309Q134 294 150 272T175 221T183 152Q183 63 188 7T216 -74T290 -101H295Q305 -101 311 -107T317 -123V-137Q317 -147 311 -153T295 -159H290Z" />
<glyph unicode="|" horiz-adv-x="219" d="M101 -208Q91 -208 85 -202T79 -186V874Q79 884 85 890T101 896H118Q128 896 134 890T140 874V-186Q140 -196 134 -202T118 -208H101Z" />
<glyph unicode="}" horiz-adv-x="344" d="M54 776Q113 776 147 757T197 700T217 609T222 486Q222 429 236 402T278 354L283 351Q307 335 307 314V302Q307 281 283 265L277 261Q249 242 236 214T222 130Q222 61 218 8T197 -83T147 -139T54 -159H49Q39 -159 33 -153T27
-137V-123Q27 -113 33 -107T49 -101H54Q106 -100 128 -75T155 6T161 151Q161 210 179 247T236 308Q210 324 194 345T169 396T161 465Q161 555 156 610T128 692T54 718H49Q39 718 33 724T27 740V754Q27 764 33 770T49 776H54Z" />
<glyph unicode="~" horiz-adv-x="563" d="M94 252Q87 252 82 257T77 269V292Q77 305 93 317T134 338T187 347Q219 347 242 342T287 330T329 318T378 312Q409 312 427 324T457 343Q461 345 464 346T470 347Q478 347 482 343T487 330V307Q487 295 471 282T430 261T377
252Q347 252 324 257T280 269T237 281T186 287Q155 287 137 275T107 256Q103 255 100 254T94 252Z" />
<glyph unicode="&#xa0;" horiz-adv-x="258" />
<glyph unicode="&#xa1;" horiz-adv-x="217" d="M117 376Q127 376 133 370T139 354V-159Q139 -169 133 -175T117 -181H100Q90 -181 84 -175T78 -159V354Q78 364 84 370T100 376H117ZM128 519Q138 519 144 513T150 497V459Q150 449 144 443T128 436H90Q80 436 74
442T67 459V497Q67 507 73 513T90 519H128Z" />
<glyph unicode="&#xa2;" horiz-adv-x="544" d="M266 -100Q256 -100 250 -94T244 -78V-8Q159 1 111 61T61 220Q60 235 60 260T61 300Q63 398 111 458T244 528V588Q244 598 250 604T266 610H282Q292 610 298 604T304 588V529Q355 524 390 506T447 464T478 414T489
371Q490 361 483 355T467 349H453Q443 349 439 353T429 370Q408 427 368 449T274 472Q213 472 169 431T122 295Q120 260 122 225Q125 131 169 90T274 48Q327 48 367 70T429 150Q434 162 438 166T453 171H467Q476 171 483 165T489 149Q488 131 479 106T448 57T391
14T304 -9V-78Q304 -88 298 -94T282 -100H266Z" />
<glyph unicode="&#xa3;" horiz-adv-x="658" d="M449 -5Q411 -5 383 7T332 36T289 71T247 101T200 113Q153 113 137 87T115 21Q114 16 111 8T94 0H71Q62 0 57 6T52 19Q54 90 88 126T170 171Q169 205 163 240T151 315H74Q64 315 58 321T52 337V353Q52 363 58 369T74
375H144Q143 394 142 414T141 456Q141 523 164 581T238 675T366 711Q441 711 491 681T566 601T593 495Q593 486 587 480T572 473H554Q547 473 540 479T531 494Q518 568 478 609T365 651Q285 651 245 596T204 455Q204 433 205 414T208 375H419Q429 375 435 369T441
353V337Q441 327 435 321T419 315H217Q222 279 227 244T234 169Q271 162 298 144T347 106T394 70T449 55Q496 55 512 82T535 149Q536 154 541 161T554 168H579Q588 168 593 163T598 149Q597 99 578 65T526 13T449 -5Z" />
<glyph unicode="&#xa4;" horiz-adv-x="578" d="M90 89L78 101Q71 108 71 116T78 132L121 174Q79 228 79 300Q79 372 121 426L78 468Q71 475 71 483T78 499L90 511Q97 518 105 518T121 511L163 468Q189 488 221 499T289 510Q324 510 356 499T415 468L457 511Q464
518 472 518T488 511L500 499Q507 492 507 484T500 468L457 426Q477 400 488 368T499 300Q499 264 488 232T457 174L500 132Q507 125 507 117T500 101L488 89Q481 82 473 82T457 89L415 132Q361 90 289 90Q217 90 163 132L121 89Q114 82 106 82T90 89ZM289 150Q331
150 365 170T419 224T439 300Q439 342 419 376T365 430T289 450Q247 450 213 430T159 376T139 300Q139 259 159 225T213 170T289 150Z" />
<glyph unicode="&#xa5;" horiz-adv-x="586" d="M283 0Q273 0 267 6T261 22V294L40 667Q39 670 38 673T36 680Q36 688 42 694T56 700H78Q85 700 91 697T101 685L293 361L485 685Q490 693 495 696T508 700H530Q538 700 544 694T550 680Q550 676 549 673T546 667L325
294V22Q325 12 319 6T302 0H283ZM113 123Q103 123 97 129T91 145V161Q91 171 97 177T113 183H473Q483 183 489 177T495 161V145Q495 135 489 129T473 123H113ZM113 243Q103 243 97 249T91 265V281Q91 291 97 297T113 303H473Q483 303 489 297T495 281V265Q495 255
489 249T473 243H113Z" />
<glyph unicode="&#xa6;" horiz-adv-x="225" d="M104 475Q94 475 88 481T82 497V807Q82 817 88 823T104 829H121Q131 829 137 823T143 807V497Q143 487 137 481T121 475H104ZM104 0Q94 0 88 6T82 22V332Q82 342 88 348T104 354H121Q131 354 137 348T143 332V22Q143
12 137 6T121 0H104Z" />
<glyph unicode="&#xa7;" horiz-adv-x="553" d="M272 -140Q221 -140 184 -128T124 -95T89 -51T76 -6Q75 3 81 8T97 14H115Q123 14 129 10T139 -6Q146 -24 158 -41T198 -70T272 -82Q335 -82 364 -52T394 22Q394 53 382 71T341 102T256 132Q181 155 135 180T68 241T46
330Q46 373 69 404T124 460Q109 478 104 500T98 548Q98 587 118 624T179 686T281 710Q350 710 392 689T455 636T477 576Q478 567 472 562T456 556H438Q430 556 425 560T414 576Q408 594 395 611T356 640T281 652Q218 652 189 622T159 548Q159 517 171 499T213 468T297
438Q372 415 418 390T485 329T507 240Q507 197 484 166T429 110Q444 92 449 70T455 22Q455 -17 435 -54T375 -115T272 -140ZM382 147Q413 167 429 188T446 241Q446 271 433 295T383 340T272 383Q240 393 215 403T171 423Q140 403 124 382T107 329Q107 299 120 275T170
230T281 187Q345 168 382 147Z" />
<glyph unicode="&#xa8;" horiz-adv-x="376" d="M245 627Q235 627 229 633T223 649V687Q223 697 229 703T245 710H283Q293 710 299 704T306 687V649Q306 639 300 633T283 627H245ZM92 627Q82 627 76 633T70 649V687Q70 697 76 703T92 710H130Q140 710 146 704T153
687V649Q153 639 147 633T130 627H92Z" />
<glyph unicode="&#xa9;" horiz-adv-x="834" d="M417 -10Q342 -10 277 18T163 95T85 210T57 350Q57 425 85 490T162 604T277 682T417 710Q492 710 557 682T671 605T749 490T777 350Q777 275 749 210T672 96T557 18T417 -10ZM417 45Q479 45 533 69T629 135T693 232T717
350Q717 412 694 467T629 565T534 631T417 655Q355 655 301 631T205 565T141 468T117 350Q117 288 140 233T205 135T300 69T417 45ZM417 158Q367 158 331 180T276 238T255 317Q255 327 255 339T254 363T255 385Q257 428 276 464T331 522T417 544Q471 544 506 527T558
486T575 437Q575 427 569 421T553 415H536Q526 415 521 421T513 434Q504 458 482 472T417 486Q377 486 356 470T326 430T316 385Q316 375 316 363T315 339T316 317Q317 297 325 273T355 233T417 216Q460 216 482 230T513 268Q516 276 521 281T536 287H553Q563 287
569 281T575 265Q575 242 558 217T506 175T417 158Z" />
<glyph unicode="&#xaa;" horiz-adv-x="367" d="M151 429Q108 429 83 451T58 505Q58 545 88 570T171 602L234 611Q234 614 232 623T219 639T184 647Q162 647 151 642T133 632T114 627H97Q87 627 81 630T75 644Q76 654 90 668T130 694T187 705Q237 705 266 675T295
598V456Q295 446 289 440T273 434H256Q246 434 240 440T234 456V463Q226 449 202 439T151 429ZM160 483Q201 483 217 506T234 559L187 552Q145 546 133 534T120 507Q120 496 132 490T160 483Z" />
<glyph unicode="&#xab;" horiz-adv-x="603" d="M525 92Q519 92 513 95T501 104L313 286Q303 296 300 304T296 321V337Q297 345 300 353T313 372L501 554Q507 559 513 562T525 566Q534 566 539 561T545 546V529Q545 517 541 510T527 493L358 329L527 165Q537 155
541 148T545 129V112Q545 103 540 98T525 92ZM276 92Q270 92 264 95T252 104L64 286Q54 296 51 304T47 321V337Q48 345 51 353T64 372L252 554Q258 559 264 562T276 566Q285 566 290 561T296 546V529Q296 517 292 510T278 493L109 329L278 165Q288 155 292 148T296
129V112Q296 103 291 98T276 92Z" />
<glyph unicode="&#xac;" horiz-adv-x="581" d="M465 170Q455 170 449 176T443 192V292H98Q88 292 82 298T76 314V328Q76 338 82 344T98 350H483Q493 350 499 344T505 328V192Q505 182 499 176T483 170H465Z" />
<glyph unicode="&#xad;" horiz-adv-x="600" d="M96 271Q86 271 80 277T74 293V307Q74 317 80 323T96 329H391Q401 329 407 323T413 307V293Q413 283 407 277T391 271H96Z" />
<glyph unicode="&#xae;" horiz-adv-x="834" d="M417 -10Q342 -10 277 18T163 95T85 210T57 350Q57 425 85 490T162 604T277 682T417 710Q492 710 557 682T671 605T749 490T777 350Q777 275 749 210T672 96T557 18T417 -10ZM417 45Q479 45 533 69T629 135T693 232T717
350Q717 412 694 467T629 565T534 631T417 655Q355 655 301 631T205 565T141 468T117 350Q117 288 140 233T205 135T300 69T417 45ZM304 168Q282 168 282 190V512Q282 534 304 534H432Q470 534 501 523T550 487T568 418Q568 378 548 352T496 313L565 204Q567 202
568 199T569 190Q569 182 564 175T547 168H533Q523 168 516 173T504 187L432 302H343V190Q343 168 321 168H304ZM343 360H430Q476 360 491 378T507 418Q507 441 492 458T430 476H343V360Z" />
<glyph unicode="&#xaf;" horiz-adv-x="383" d="M92 622Q82 622 76 628T70 644V658Q70 668 76 674T92 680H291Q301 680 307 674T313 658V644Q313 634 307 628T291 622H92Z" />
<glyph unicode="&#xb0;" horiz-adv-x="378" d="M189 448Q152 448 121 465T72 512T53 579Q53 617 71 646T121 693T189 710Q227 710 257 693T306 647T325 579Q325 542 307 512T258 465T189 448ZM189 503Q223 503 244 524T265 579Q265 613 244 634T189 655Q155 655
134 634T113 579Q113 545 134 524T189 503Z" />
<glyph unicode="&#xb1;" horiz-adv-x="556" d="M270 193Q260 193 254 199T248 215V373H91Q81 373 75 379T69 395V409Q69 419 75 425T91 431H248V585Q248 595 254 601T270 607H286Q296 607 302 601T308 585V431H465Q475 431 481 425T487 409V395Q487 385 481 379T465
373H308V215Q308 205 302 199T286 193H270ZM101 0Q91 0 85 6T79 22V36Q79 46 85 52T101 58H455Q465 58 471 52T477 36V22Q477 12 471 6T455 0H101Z" />
<glyph unicode="&#xb2;" horiz-adv-x="335" d="M53 350Q31 350 31 372V389Q31 397 36 404T55 422Q119 468 157 495T213 545T231 594Q231 620 212 635T166 650Q139 650 126 642T107 623T98 607Q92 596 87 593T74 589H59Q39 589 41 608Q43 632 60 654T105 690T166
705Q223 705 256 672T289 594Q289 557 273 530T222 474T130 406H282Q304 406 304 384V372Q304 350 282 350H53Z" />
<glyph unicode="&#xb3;" horiz-adv-x="336" d="M163 345Q119 345 90 356T46 386T29 425Q28 435 35 439T46 444H66Q73 444 78 440T88 430Q94 423 100 416T121 405T163 401Q196 401 218 414T241 451Q241 480 221 490T169 501H129Q119 501 113 507T107 523V540Q107
547 110 552T119 563L208 644H66Q44 644 44 666V678Q44 700 66 700H264Q286 700 286 678V666Q286 655 284 647T270 627L194 557Q251 554 275 524T299 451Q299 402 264 374T163 345Z" />
<glyph unicode="&#xb4;" horiz-adv-x="311" d="M86 595Q70 595 70 611Q70 619 75 624L144 707Q152 717 159 721T181 725H222Q241 725 241 706Q241 699 236 694L127 605Q119 598 113 597T96 595H86Z" />
<glyph unicode="&#xb5;" horiz-adv-x="586" d="M98 -200Q88 -200 82 -194T76 -178V498Q76 508 82 514T98 520H115Q125 520 131 514T137 498V219Q137 166 160 128T220 69T293 48Q331 48 366 68T425 127T449 219V498Q449 508 455 514T471 520H488Q498 520 504 514T510
498V22Q510 12 504 6T488 0H471Q461 0 455 6T449 22V69Q424 35 388 13T293 -10Q235 -10 199 12T137 69V-178Q137 -188 131 -194T115 -200H98Z" />
<glyph unicode="&#xb6;" horiz-adv-x="491" d="M231 -100Q221 -100 215 -94T209 -78V346Q160 346 120 370T56 434T32 523Q32 572 56 612T120 676T209 700H388Q398 700 404 694T410 678V-78Q410 -88 404 -94T388 -100H371Q361 -100 355 -94T349 -78V642H270V-78Q270
-88 264 -94T248 -100H231Z" />
<glyph unicode="&#xb7;" horiz-adv-x="330" d="M165 200Q138 200 115 213T79 250T65 300Q65 328 78 350T115 386T165 400Q193 400 215 387T251 351T265 300Q265 273 252 250T216 214T165 200Z" />
<glyph unicode="&#xb8;" horiz-adv-x="320" d="M156 -220Q128 -219 107 -210T76 -188T74 -169L88 -156Q97 -148 104 -153T122 -166T156 -174Q173 -174 186 -164T199 -134Q199 -116 186 -106T156 -96Q140 -96 130 -100T112 -106T96 -100L80 -83Q75 -77 78 -69T85
-53L120 27H178L136 -58Q142 -54 152 -52T174 -50Q207 -50 228 -73T250 -132Q250 -168 227 -194T156 -220Z" />
<glyph unicode="&#xb9;" horiz-adv-x="231" d="M146 350Q124 350 124 372V623L61 576Q54 571 45 572T30 581L23 591Q17 599 18 607T27 622L123 693Q133 700 146 700H160Q182 700 182 678V372Q182 350 160 350H146Z" />
<glyph unicode="&#xba;" horiz-adv-x="361" d="M181 429Q129 429 97 456T61 540Q60 548 60 567T61 594Q64 650 99 677T181 705Q228 705 263 678T301 594Q302 587 302 568T301 540Q298 484 266 457T181 429ZM181 487Q209 487 224 502T240 545Q241 553 241 567T240
589Q239 615 224 631T181 647Q153 647 139 631T122 589Q121 582 121 568T122 545Q124 517 138 502T181 487Z" />
<glyph unicode="&#xbb;" horiz-adv-x="603" d="M327 92Q318 92 313 97T307 112V129Q307 141 311 148T325 165L494 329L325 493Q315 503 311 510T307 529V546Q307 555 312 560T327 566Q333 566 339 563T351 554L539 372Q549 362 552 354T556 337V321Q555 313 552
305T539 286L351 104Q345 99 339 96T327 92ZM78 92Q69 92 64 97T58 112V129Q58 141 62 148T76 165L245 329L76 493Q66 503 62 510T58 529V546Q58 555 63 560T78 566Q84 566 90 563T102 554L290 372Q300 362 303 354T307 337V321Q306 313 303 305T290 286L102 104Q96
99 90 96T78 92Z" />
<glyph unicode="&#xbc;" horiz-adv-x="717" d="M146 350Q124 350 124 372V623L61 576Q54 571 45 572T30 581L23 591Q17 599 18 607T27 622L123 693Q133 700 146 700H160Q182 700 182 678V372Q182 350 160 350H146ZM47 0Q27 0 27 20Q27 26 31 31L524 681Q531 690
537 695T557 700H574Q594 700 594 680Q594 674 590 669L97 19Q90 10 84 5T64 0H47ZM564 -2Q542 -2 542 20V73H395Q373 73 373 95V108Q373 110 374 118T385 138L522 330Q530 341 537 344T552 348H578Q600 348 600 326V129H635Q657 129 657 107V95Q657 73 635 73H600V20Q600
-2 578 -2H564ZM448 129H542V264L448 129Z" />
<glyph unicode="&#xbd;" horiz-adv-x="726" d="M146 350Q124 350 124 372V623L61 576Q54 571 45 572T30 581L23 591Q17 599 18 607T27 622L123 693Q133 700 146 700H160Q182 700 182 678V372Q182 350 160 350H146ZM47 0Q27 0 27 20Q27 26 31 31L524 681Q531 690
537 695T557 700H574Q594 700 594 680Q594 674 590 669L97 19Q90 10 84 5T64 0H47ZM406 0Q384 0 384 22V39Q384 47 389 54T408 72Q472 118 510 145T566 195T584 244Q584 270 565 285T519 300Q492 300 479 292T460 273T451 257Q445 246 440 243T427 239H412Q392
239 394 258Q396 282 413 304T458 340T519 355Q576 355 609 322T642 244Q642 207 626 180T575 124T483 56H635Q657 56 657 34V22Q657 0 635 0H406Z" />
<glyph unicode="&#xbe;" horiz-adv-x="807" d="M163 345Q119 345 90 356T46 386T29 425Q28 435 35 439T46 444H66Q73 444 78 440T88 430Q94 423 100 416T121 405T163 401Q196 401 218 414T241 451Q241 480 221 490T169 501H129Q119 501 113 507T107 523V540Q107
547 110 552T119 563L208 644H66Q44 644 44 666V678Q44 700 66 700H264Q286 700 286 678V666Q286 655 284 647T270 627L194 557Q251 554 275 524T299 451Q299 402 264 374T163 345ZM152 0Q132 0 132 20Q132 26 136 31L629 681Q636 690 642 695T662 700H679Q699
700 699 680Q699 674 695 669L202 19Q195 10 189 5T169 0H152ZM671 -2Q649 -2 649 20V73H502Q480 73 480 95V108Q480 110 481 118T492 138L629 330Q637 341 644 344T659 348H685Q707 348 707 326V129H742Q764 129 764 107V95Q764 73 742 73H707V20Q707 -2 685 -2H671ZM555
129H649V264L555 129Z" />
<glyph unicode="&#xbf;" horiz-adv-x="496" d="M253 377Q263 377 269 371T275 355Q275 343 275 331T275 307Q275 261 258 226T216 163T165 109T120 57T97 -2Q92 -43 113 -72T170 -117T245 -132Q304 -132 347 -101T404 7Q406 21 413 25T428 29H444Q453 29 459 24T465
9Q464 -33 448 -69T402 -132T333 -174T245 -190Q190 -190 150 -174T83 -132T45 -72T36 -3Q39 39 58 71T103 131T154 185T197 241T214 307Q214 319 214 331T214 355Q214 365 220 371T236 377H253ZM265 520Q275 520 281 514T287 498V460Q287 450 281 444T265 437H227Q217
437 211 443T204 460V498Q204 508 210 514T227 520H265Z" />
<glyph unicode="&#xc0;" horiz-adv-x="650" d="M44 0Q36 0 30 6T24 20Q24 25 26 31L279 680Q283 690 289 695T308 700H342Q354 700 360 695T371 680L624 31Q626 25 626 20Q626 12 620 6T606 0H586Q576 0 571 5T564 15L502 175H148L86 15Q85 11 80 6T64 0H44ZM172
235H478L325 629L172 235ZM332 750Q322 750 316 751T301 760L192 849Q187 854 187 861Q187 880 206 880H252Q267 880 274 876T289 862L358 779Q363 774 363 766Q363 750 347 750H332Z" />
<glyph unicode="&#xc1;" horiz-adv-x="650" d="M44 0Q36 0 30 6T24 20Q24 25 26 31L279 680Q283 690 289 695T308 700H342Q354 700 360 695T371 680L624 31Q626 25 626 20Q626 12 620 6T606 0H586Q576 0 571 5T564 15L502 175H148L86 15Q85 11 80 6T64 0H44ZM172
235H478L325 629L172 235ZM313 750Q297 750 297 766Q297 774 302 779L371 862Q379 872 386 876T408 880H454Q473 880 473 861Q473 854 468 849L359 760Q351 753 345 752T328 750H313Z" />
<glyph unicode="&#xc2;" horiz-adv-x="650" d="M44 0Q36 0 30 6T24 20Q24 25 26 31L279 680Q283 690 289 695T308 700H342Q354 700 360 695T371 680L624 31Q626 25 626 20Q626 12 620 6T606 0H586Q576 0 571 5T564 15L502 175H148L86 15Q85 11 80 6T64 0H44ZM172
235H478L325 629L172 235ZM203 750Q189 750 189 761Q189 769 201 781L288 866Q299 877 306 878T320 880H330Q338 880 345 879T362 866L449 781Q461 769 461 761Q461 750 447 750H430Q424 750 417 752T405 757L325 817L245 757Q241 754 234 752T220 750H203Z" />
<glyph unicode="&#xc3;" horiz-adv-x="650" d="M44 0Q36 0 30 6T24 20Q24 25 26 31L279 680Q283 690 289 695T308 700H342Q354 700 360 695T371 680L624 31Q626 25 626 20Q626 12 620 6T606 0H586Q576 0 571 5T564 15L502 175H148L86 15Q85 11 80 6T64 0H44ZM172
235H478L325 629L172 235ZM374 745Q351 745 335 753T305 770T277 779Q266 779 261 772T252 758T236 750H216Q209 750 205 755T200 766Q200 780 205 794T221 819T245 837T274 844Q298 844 314 836T344 819T372 810Q384 810 388 817T397 832T413 840H433Q441 840
445 835T449 824Q449 810 443 796T427 771T403 752T374 745Z" />
<glyph unicode="&#xc4;" horiz-adv-x="650" d="M44 0Q36 0 30 6T24 20Q24 25 26 31L279 680Q283 690 289 695T308 700H342Q354 700 360 695T371 680L624 31Q626 25 626 20Q626 12 620 6T606 0H586Q576 0 571 5T564 15L502 175H148L86 15Q85 11 80 6T64 0H44ZM172
235H478L325 629L172 235ZM397 750Q387 750 381 756T375 772V810Q375 820 381 826T397 833H435Q445 833 451 827T458 810V772Q458 762 452 756T435 750H397ZM214 750Q204 750 198 756T192 772V810Q192 820 198 826T214 833H252Q262 833 268 827T275 810V772Q275
762 269 756T252 750H214Z" />
<glyph unicode="&#xc5;" horiz-adv-x="650" d="M44 0Q36 0 30 6T24 20Q24 25 26 31L279 680Q283 690 289 695T308 700H342Q354 700 360 695T371 680L624 31Q626 25 626 20Q626 12 620 6T606 0H586Q576 0 571 5T564 15L502 175H148L86 15Q85 11 80 6T64 0H44ZM172
235H478L325 629L172 235ZM325 740Q292 740 269 761T245 815Q245 848 268 869T325 890Q358 890 381 869T405 815Q405 782 382 761T325 740ZM325 785Q338 785 346 793T355 815Q355 828 347 836T325 845Q312 845 304 837T295 815Q295 802 303 794T325 785Z" />
<glyph unicode="&#xc6;" horiz-adv-x="920" d="M25 0Q17 0 11 6T5 20Q5 26 9 34Q9 34 11 38T24 61T58 120T121 232T223 413T375 681Q381 692 387 696T401 700H834Q845 700 851 694T857 677V662Q857 652 851 646T834 640H485V385H812Q823 385 829 379T835 362V347Q835
337 829 331T812 325H485V60H842Q853 60 859 54T865 37V22Q865 12 859 6T842 0H444Q434 0 428 6T422 22V175H160Q127 116 109 83T82 36T72 18T70 15Q66 8 61 4T48 0H25ZM194 235H422V633H421L194 235Z" />
<glyph unicode="&#xc7;" horiz-adv-x="651" d="M328 -220Q300 -219 279 -210T248 -188T246 -169L260 -156Q269 -148 276 -153T294 -166T328 -174Q345 -174 358 -164T371 -134Q371 -116 358 -106T328 -96Q312 -96 302 -100T284 -106T268 -100L252 -83Q247 -77 250
-69T257 -53L277 -6Q205 5 160 41T92 134T66 261Q65 302 65 349T66 439Q69 517 97 578T182 675T331 710Q402 710 452 690T533 638T580 568T598 494Q599 485 593 480T577 474H557Q549 474 543 478T535 495Q516 584 464 617T331 650Q240 650 187 599T129 434Q126
352 129 266Q133 153 186 102T331 50Q411 50 463 83T535 205Q537 217 543 221T557 226H577Q586 226 592 221T598 206Q596 170 581 133T534 63T452 10T331 -10L308 -58Q314 -54 324 -52T346 -50Q379 -50 400 -73T422 -132Q422 -168 399 -194T328 -220Z" />
<glyph unicode="&#xc8;" horiz-adv-x="592" d="M116 0Q106 0 100 6T94 22V677Q94 688 100 694T116 700H506Q517 700 523 694T529 677V662Q529 652 523 646T506 640H157V385H484Q495 385 501 379T507 362V347Q507 337 501 331T484 325H157V60H514Q525 60 531 54T537
37V22Q537 12 531 6T514 0H116ZM303 750Q293 750 287 751T272 760L163 849Q158 854 158 861Q158 880 177 880H223Q238 880 245 876T260 862L329 779Q334 774 334 766Q334 750 318 750H303Z" />
<glyph unicode="&#xc9;" horiz-adv-x="592" d="M116 0Q106 0 100 6T94 22V677Q94 688 100 694T116 700H506Q517 700 523 694T529 677V662Q529 652 523 646T506 640H157V385H484Q495 385 501 379T507 362V347Q507 337 501 331T484 325H157V60H514Q525 60 531 54T537
37V22Q537 12 531 6T514 0H116ZM284 750Q268 750 268 766Q268 774 273 779L342 862Q350 872 357 876T379 880H425Q444 880 444 861Q444 854 439 849L330 760Q322 753 316 752T299 750H284Z" />
<glyph unicode="&#xca;" horiz-adv-x="592" d="M116 0Q106 0 100 6T94 22V677Q94 688 100 694T116 700H506Q517 700 523 694T529 677V662Q529 652 523 646T506 640H157V385H484Q495 385 501 379T507 362V347Q507 337 501 331T484 325H157V60H514Q525 60 531 54T537
37V22Q537 12 531 6T514 0H116ZM174 750Q160 750 160 761Q160 769 172 781L259 866Q270 877 277 878T291 880H301Q309 880 316 879T333 866L420 781Q432 769 432 761Q432 750 418 750H401Q395 750 388 752T376 757L296 817L216 757Q212 754 205 752T191 750H174Z"
/>
<glyph unicode="&#xcb;" horiz-adv-x="592" d="M116 0Q106 0 100 6T94 22V677Q94 688 100 694T116 700H506Q517 700 523 694T529 677V662Q529 652 523 646T506 640H157V385H484Q495 385 501 379T507 362V347Q507 337 501 331T484 325H157V60H514Q525 60 531 54T537
37V22Q537 12 531 6T514 0H116ZM368 750Q358 750 352 756T346 772V810Q346 820 352 826T368 833H406Q416 833 422 827T429 810V772Q429 762 423 756T406 750H368ZM185 750Q175 750 169 756T163 772V810Q163 820 169 826T185 833H223Q233 833 239 827T246 810V772Q246
762 240 756T223 750H185Z" />
<glyph unicode="&#xcc;" horiz-adv-x="251" d="M116 0Q106 0 100 6T94 22V678Q94 688 100 694T116 700H135Q145 700 151 694T157 678V22Q157 12 151 6T135 0H116ZM389 750Q379 750 373 751T358 760L249 849Q244 854 244 861Q244 880 263 880H309Q324 880 331 876T346
862L415 779Q420 774 420 766Q420 750 404 750H389Z" />
<glyph unicode="&#xcd;" horiz-adv-x="251" d="M116 0Q106 0 100 6T94 22V678Q94 688 100 694T116 700H135Q145 700 151 694T157 678V22Q157 12 151 6T135 0H116ZM370 750Q354 750 354 766Q354 774 359 779L428 862Q436 872 443 876T465 880H511Q530 880 530 861Q530
854 525 849L416 760Q408 753 402 752T385 750H370Z" />
<glyph unicode="&#xce;" horiz-adv-x="251" d="M116 0Q106 0 100 6T94 22V678Q94 688 100 694T116 700H135Q145 700 151 694T157 678V22Q157 12 151 6T135 0H116ZM260 750Q246 750 246 761Q246 769 258 781L345 866Q356 877 363 878T377 880H387Q395 880 402 879T419
866L506 781Q518 769 518 761Q518 750 504 750H487Q481 750 474 752T462 757L382 817L302 757Q298 754 291 752T277 750H260Z" />
<glyph unicode="&#xcf;" horiz-adv-x="251" d="M116 0Q106 0 100 6T94 22V678Q94 688 100 694T116 700H135Q145 700 151 694T157 678V22Q157 12 151 6T135 0H116ZM454 750Q444 750 438 756T432 772V810Q432 820 438 826T454 833H492Q502 833 508 827T515 810V772Q515
762 509 756T492 750H454ZM271 750Q261 750 255 756T249 772V810Q249 820 255 826T271 833H309Q319 833 325 827T332 810V772Q332 762 326 756T309 750H271Z" />
<glyph unicode="&#xd0;" horiz-adv-x="683" d="M122 0Q112 0 106 6T100 22V322H37Q27 322 21 328T15 344V360Q15 370 21 376T37 382H100V677Q100 688 106 694T122 700H335Q441 700 501 669T586 578T613 430Q614 385 614 351T613 271Q611 179 586 119T502 30T340
0H122ZM163 60H335Q415 60 461 81T528 150T550 276Q551 306 551 328T551 373T550 425Q548 535 499 587T330 640H163V382H313Q323 382 329 376T335 360V344Q335 334 329 328T313 322H163V60Z" />
<glyph unicode="&#xd1;" horiz-adv-x="684" d="M116 0Q106 0 100 6T94 22V677Q94 688 100 694T116 700H137Q147 700 152 695T158 688L527 124V677Q527 688 533 694T549 700H567Q578 700 584 694T590 677V23Q590 13 584 7T568 0H546Q536 0 532 5T525 12L157 574V22Q157
12 151 6T134 0H116ZM391 745Q368 745 352 753T322 770T294 779Q283 779 278 772T269 758T253 750H233Q226 750 222 755T217 766Q217 780 222 794T238 819T262 837T291 844Q315 844 331 836T361 819T389 810Q401 810 405 817T414 832T430 840H450Q458 840 462 835T466
824Q466 810 460 796T444 771T420 752T391 745Z" />
<glyph unicode="&#xd2;" horiz-adv-x="662" d="M331 -10Q248 -10 190 19T101 110T67 266Q66 311 66 350T67 434Q70 527 103 588T194 680T331 710Q409 710 467 680T559 589T595 434Q597 389 597 350T595 266Q593 172 562 111T472 20T331 -10ZM331 50Q417 50 472
102T532 271Q534 316 534 350T532 429Q530 507 504 556T433 627T331 650Q275 650 231 628T160 556T130 429Q129 384 129 350T130 271Q134 154 190 102T331 50ZM338 750Q328 750 322 751T307 760L198 849Q193 854 193 861Q193 880 212 880H258Q273 880 280 876T295
862L364 779Q369 774 369 766Q369 750 353 750H338Z" />
<glyph unicode="&#xd3;" horiz-adv-x="662" d="M331 -10Q248 -10 190 19T101 110T67 266Q66 311 66 350T67 434Q70 527 103 588T194 680T331 710Q409 710 467 680T559 589T595 434Q597 389 597 350T595 266Q593 172 562 111T472 20T331 -10ZM331 50Q417 50 472
102T532 271Q534 316 534 350T532 429Q530 507 504 556T433 627T331 650Q275 650 231 628T160 556T130 429Q129 384 129 350T130 271Q134 154 190 102T331 50ZM319 750Q303 750 303 766Q303 774 308 779L377 862Q385 872 392 876T414 880H460Q479 880 479 861Q479
854 474 849L365 760Q357 753 351 752T334 750H319Z" />
<glyph unicode="&#xd4;" horiz-adv-x="662" d="M331 -10Q248 -10 190 19T101 110T67 266Q66 311 66 350T67 434Q70 527 103 588T194 680T331 710Q409 710 467 680T559 589T595 434Q597 389 597 350T595 266Q593 172 562 111T472 20T331 -10ZM331 50Q417 50 472
102T532 271Q534 316 534 350T532 429Q530 507 504 556T433 627T331 650Q275 650 231 628T160 556T130 429Q129 384 129 350T130 271Q134 154 190 102T331 50ZM209 750Q195 750 195 761Q195 769 207 781L294 866Q305 877 312 878T326 880H336Q344 880 351 879T368
866L455 781Q467 769 467 761Q467 750 453 750H436Q430 750 423 752T411 757L331 817L251 757Q247 754 240 752T226 750H209Z" />
<glyph unicode="&#xd5;" horiz-adv-x="662" d="M331 -10Q248 -10 190 19T101 110T67 266Q66 311 66 350T67 434Q70 527 103 588T194 680T331 710Q409 710 467 680T559 589T595 434Q597 389 597 350T595 266Q593 172 562 111T472 20T331 -10ZM331 50Q417 50 472
102T532 271Q534 316 534 350T532 429Q530 507 504 556T433 627T331 650Q275 650 231 628T160 556T130 429Q129 384 129 350T130 271Q134 154 190 102T331 50ZM380 745Q357 745 341 753T311 770T283 779Q272 779 267 772T258 758T242 750H222Q215 750 211 755T206
766Q206 780 211 794T227 819T251 837T280 844Q304 844 320 836T350 819T378 810Q390 810 394 817T403 832T419 840H439Q447 840 451 835T455 824Q455 810 449 796T433 771T409 752T380 745Z" />
<glyph unicode="&#xd6;" horiz-adv-x="662" d="M331 -10Q248 -10 190 19T101 110T67 266Q66 311 66 350T67 434Q70 527 103 588T194 680T331 710Q409 710 467 680T559 589T595 434Q597 389 597 350T595 266Q593 172 562 111T472 20T331 -10ZM331 50Q417 50 472
102T532 271Q534 316 534 350T532 429Q530 507 504 556T433 627T331 650Q275 650 231 628T160 556T130 429Q129 384 129 350T130 271Q134 154 190 102T331 50ZM403 750Q393 750 387 756T381 772V810Q381 820 387 826T403 833H441Q451 833 457 827T464 810V772Q464
762 458 756T441 750H403ZM220 750Q210 750 204 756T198 772V810Q198 820 204 826T220 833H258Q268 833 274 827T281 810V772Q281 762 275 756T258 750H220Z" />
<glyph unicode="&#xd7;" horiz-adv-x="541" d="M86 136L74 148Q67 155 67 163T74 179L227 332L74 486Q67 493 67 501T74 517L86 529Q93 536 101 536T117 529L270 375L424 529Q431 536 439 536T455 529L467 517Q474 510 474 502T467 486L313 332L467 179Q474 172
474 164T467 148L455 136Q448 129 440 129T424 136L270 289L117 136Q110 129 102 129T86 136Z" />
<glyph unicode="&#xd8;" horiz-adv-x="682" d="M342 -10Q227 -10 161 46T81 222L43 208Q36 205 30 205Q22 205 17 209T11 223V242Q11 253 16 258T33 267L77 284Q76 323 76 358T78 434Q81 527 114 588T205 680T342 710Q447 710 516 655T601 488L638 502Q646 505
651 505Q659 505 664 501T670 487V468Q670 457 665 453T648 443L606 427Q608 384 608 347T606 266Q604 172 573 111T483 20T342 -10ZM342 50Q428 50 483 102T543 271Q544 309 544 339T544 403L142 246Q152 143 206 97T342 50ZM139 309L540 464Q528 562 474 606T342
650Q286 650 242 628T171 556T141 429Q140 395 139 367T139 309Z" />
<glyph unicode="&#xd9;" horiz-adv-x="691" d="M346 -10Q265 -10 208 20T119 112T88 271V677Q88 688 94 694T110 700H128Q139 700 145 694T151 677V268Q151 156 203 103T346 50Q435 50 487 103T540 268V677Q540 688 546 694T563 700H581Q591 700 597 694T603 677V271Q603
174 573 112T485 20T346 -10ZM353 750Q343 750 337 751T322 760L213 849Q208 854 208 861Q208 880 227 880H273Q288 880 295 876T310 862L379 779Q384 774 384 766Q384 750 368 750H353Z" />
<glyph unicode="&#xda;" horiz-adv-x="691" d="M346 -10Q265 -10 208 20T119 112T88 271V677Q88 688 94 694T110 700H128Q139 700 145 694T151 677V268Q151 156 203 103T346 50Q435 50 487 103T540 268V677Q540 688 546 694T563 700H581Q591 700 597 694T603 677V271Q603
174 573 112T485 20T346 -10ZM334 750Q318 750 318 766Q318 774 323 779L392 862Q400 872 407 876T429 880H475Q494 880 494 861Q494 854 489 849L380 760Q372 753 366 752T349 750H334Z" />
<glyph unicode="&#xdb;" horiz-adv-x="691" d="M346 -10Q265 -10 208 20T119 112T88 271V677Q88 688 94 694T110 700H128Q139 700 145 694T151 677V268Q151 156 203 103T346 50Q435 50 487 103T540 268V677Q540 688 546 694T563 700H581Q591 700 597 694T603 677V271Q603
174 573 112T485 20T346 -10ZM224 750Q210 750 210 761Q210 769 222 781L309 866Q320 877 327 878T341 880H351Q359 880 366 879T383 866L470 781Q482 769 482 761Q482 750 468 750H451Q445 750 438 752T426 757L346 817L266 757Q262 754 255 752T241 750H224Z"
/>
<glyph unicode="&#xdc;" horiz-adv-x="691" d="M346 -10Q265 -10 208 20T119 112T88 271V677Q88 688 94 694T110 700H128Q139 700 145 694T151 677V268Q151 156 203 103T346 50Q435 50 487 103T540 268V677Q540 688 546 694T563 700H581Q591 700 597 694T603 677V271Q603
174 573 112T485 20T346 -10ZM418 750Q408 750 402 756T396 772V810Q396 820 402 826T418 833H456Q466 833 472 827T479 810V772Q479 762 473 756T456 750H418ZM235 750Q225 750 219 756T213 772V810Q213 820 219 826T235 833H273Q283 833 289 827T296 810V772Q296
762 290 756T273 750H235Z" />
<glyph unicode="&#xdd;" horiz-adv-x="632" d="M306 0Q296 0 290 6T284 22V267L40 667Q39 670 38 673T36 680Q36 688 42 694T56 700H76Q83 700 89 697T99 685L316 332L533 685Q538 693 543 696T556 700H576Q584 700 590 694T596 680Q596 676 595 673T592 667L348
267V22Q348 12 342 6T325 0H306ZM304 750Q288 750 288 766Q288 774 293 779L362 862Q370 872 377 876T399 880H445Q464 880 464 861Q464 854 459 849L350 760Q342 753 336 752T319 750H304Z" />
<glyph unicode="&#xde;" horiz-adv-x="633" d="M116 0Q106 0 100 6T94 22V678Q94 688 100 694T116 700H135Q145 700 151 694T157 678V557H359Q429 557 480 534T560 464T589 350Q589 282 561 236T481 167T359 143H157V22Q157 12 151 6T134 0H116ZM157 203H354Q441
203 483 241T526 350Q526 421 484 459T354 497H157V203Z" />
<glyph unicode="&#xdf;" horiz-adv-x="568" d="M104 0Q94 0 88 6T82 22V502Q82 557 102 604T167 680T284 710Q357 710 401 682T466 613T487 528Q487 485 473 455T438 405T397 377Q445 362 470 334T506 272T516 202Q516 169 504 134T467 68T400 19T300 0H225Q215
0 209 6T203 22V36Q203 46 209 52T225 58H290Q372 58 413 100T455 202Q455 263 414 305T290 347H225Q215 347 209 353T203 369V383Q203 393 209 399T225 405H280Q354 406 390 437T426 528Q426 582 387 617T284 652Q220 652 182 614T143 497V22Q143 12 137 6T121
0H104Z" />
<glyph unicode="&#xe0;" horiz-adv-x="536" d="M221 -10Q173 -10 133 10T67 63T42 139Q42 207 97 248T240 301L398 323V358Q398 411 366 441T262 472Q210 472 178 452T134 398Q129 383 115 383H99Q87 383 82 389T77 405Q77 419 87 440T120 481T177 516T262 530Q321
530 359 514T419 473T450 416T459 355V22Q459 12 453 6T437 0H420Q410 0 404 6T398 22V69Q386 51 364 33T308 3T221 -10ZM231 48Q277 48 315 68T375 129T398 234V268L269 250Q187 239 145 212T103 144Q103 111 122 90T170 59T231 48ZM273 595Q263 595 257 596T242
605L133 694Q128 699 128 706Q128 725 147 725H188Q203 725 210 721T225 707L294 624Q299 619 299 611Q299 595 283 595H273Z" />
<glyph unicode="&#xe1;" horiz-adv-x="536" d="M221 -10Q173 -10 133 10T67 63T42 139Q42 207 97 248T240 301L398 323V358Q398 411 366 441T262 472Q210 472 178 452T134 398Q129 383 115 383H99Q87 383 82 389T77 405Q77 419 87 440T120 481T177 516T262 530Q321
530 359 514T419 473T450 416T459 355V22Q459 12 453 6T437 0H420Q410 0 404 6T398 22V69Q386 51 364 33T308 3T221 -10ZM231 48Q277 48 315 68T375 129T398 234V268L269 250Q187 239 145 212T103 144Q103 111 122 90T170 59T231 48ZM229 595Q213 595 213 611Q213
619 218 624L287 707Q295 717 302 721T324 725H365Q384 725 384 706Q384 699 379 694L270 605Q262 598 256 597T239 595H229Z" />
<glyph unicode="&#xe2;" horiz-adv-x="536" d="M221 -10Q173 -10 133 10T67 63T42 139Q42 207 97 248T240 301L398 323V358Q398 411 366 441T262 472Q210 472 178 452T134 398Q129 383 115 383H99Q87 383 82 389T77 405Q77 419 87 440T120 481T177 516T262 530Q321
530 359 514T419 473T450 416T459 355V22Q459 12 453 6T437 0H420Q410 0 404 6T398 22V69Q386 51 364 33T308 3T221 -10ZM231 48Q277 48 315 68T375 129T398 234V268L269 250Q187 239 145 212T103 144Q103 111 122 90T170 59T231 48ZM138 595Q124 595 124 606Q124
614 136 626L223 711Q234 722 241 723T255 725H265Q273 725 280 724T297 711L384 626Q396 614 396 606Q396 595 382 595H365Q359 595 352 597T340 602L260 662L180 602Q176 599 169 597T155 595H138Z" />
<glyph unicode="&#xe3;" horiz-adv-x="536" d="M221 -10Q173 -10 133 10T67 63T42 139Q42 207 97 248T240 301L398 323V358Q398 411 366 441T262 472Q210 472 178 452T134 398Q129 383 115 383H99Q87 383 82 389T77 405Q77 419 87 440T120 481T177 516T262 530Q321
530 359 514T419 473T450 416T459 355V22Q459 12 453 6T437 0H420Q410 0 404 6T398 22V69Q386 51 364 33T308 3T221 -10ZM231 48Q277 48 315 68T375 129T398 234V268L269 250Q187 239 145 212T103 144Q103 111 122 90T170 59T231 48ZM308 590Q285 590 271 598T244
615T218 624Q207 624 202 617T193 603T177 595H157Q150 595 146 600T141 611Q141 625 146 638T161 661T184 678T212 684Q236 684 250 676T277 659T303 650Q315 650 319 657T328 672T344 680H364Q372 680 376 675T380 664Q380 650 375 637T359 613T336 596T308 590Z"
/>
<glyph unicode="&#xe4;" horiz-adv-x="536" d="M221 -10Q173 -10 133 10T67 63T42 139Q42 207 97 248T240 301L398 323V358Q398 411 366 441T262 472Q210 472 178 452T134 398Q129 383 115 383H99Q87 383 82 389T77 405Q77 419 87 440T120 481T177 516T262 530Q321
530 359 514T419 473T450 416T459 355V22Q459 12 453 6T437 0H420Q410 0 404 6T398 22V69Q386 51 364 33T308 3T221 -10ZM231 48Q277 48 315 68T375 129T398 234V268L269 250Q187 239 145 212T103 144Q103 111 122 90T170 59T231 48ZM322 627Q312 627 306 633T300
649V687Q300 697 306 703T322 710H360Q370 710 376 704T383 687V649Q383 639 377 633T360 627H322ZM169 627Q159 627 153 633T147 649V687Q147 697 153 703T169 710H207Q217 710 223 704T230 687V649Q230 639 224 633T207 627H169Z" />
<glyph unicode="&#xe5;" horiz-adv-x="536" d="M221 -10Q173 -10 133 10T67 63T42 139Q42 207 97 248T240 301L398 323V358Q398 411 366 441T262 472Q210 472 178 452T134 398Q129 383 115 383H99Q87 383 82 389T77 405Q77 419 87 440T120 481T177 516T262 530Q321
530 359 514T419 473T450 416T459 355V22Q459 12 453 6T437 0H420Q410 0 404 6T398 22V69Q386 51 364 33T308 3T221 -10ZM231 48Q277 48 315 68T375 129T398 234V268L269 250Q187 239 145 212T103 144Q103 111 122 90T170 59T231 48ZM260 590Q227 590 204 611T180
665Q180 698 203 719T260 740Q293 740 316 719T340 665Q340 632 317 611T260 590ZM260 635Q273 635 281 643T290 665Q290 678 282 686T260 695Q247 695 239 687T230 665Q230 652 238 644T260 635Z" />
<glyph unicode="&#xe6;" horiz-adv-x="881" d="M222 -10Q169 -10 129 10T66 63T43 139Q43 207 98 249T241 304L399 326V358Q399 411 367 441T263 472Q226 472 200 462T159 437T137 404Q133 392 128 388T113 383H99Q90 383 84 389T77 405Q77 419 87 440T120 481T177
516T263 530Q339 530 381 505T441 442Q467 481 509 505T615 530Q685 530 727 505T792 439T822 355T830 272V257Q830 247 824 241T807 235H461V225Q463 160 486 121T545 65T614 48Q653 48 691 63T753 113Q761 125 766 128T783 131H795Q816 131 816 111Q816 100 804
80T766 40T703 5T614 -10Q541 -10 496 21T427 100Q398 45 347 18T222 -10ZM232 48Q278 48 316 68T376 129T399 234V268L270 250Q188 239 146 212T104 144Q104 111 123 90T171 59T232 48ZM461 291H769V295Q769 371 732 421T615 472Q577 472 543 453T486 395T461
295V291Z" />
<glyph unicode="&#xe7;" horiz-adv-x="536" d="M275 -220Q247 -219 226 -210T195 -188T193 -169L207 -156Q216 -148 223 -153T241 -166T275 -174Q292 -174 305 -164T318 -134Q318 -116 305 -106T275 -96Q259 -96 249 -100T231 -106T215 -100L199 -83Q194 -77 197
-69T204 -53L225 -5Q145 9 102 68T57 220Q56 235 56 260T57 300Q59 372 84 423T159 502T278 530Q331 530 369 516T433 478T471 426T485 371Q486 361 479 355T463 349H449Q439 349 435 353T425 370Q404 427 368 449T278 472Q210 472 166 431T118 295Q116 260 118
225Q121 131 165 90T278 48Q331 48 367 70T425 150Q430 162 434 166T449 171H463Q472 171 479 165T485 149Q484 122 471 94T433 43T370 5T278 -10L255 -58Q261 -54 271 -52T293 -50Q326 -50 347 -73T369 -132Q369 -168 346 -194T275 -220Z" />
<glyph unicode="&#xe8;" horiz-adv-x="546" d="M274 -10Q177 -10 120 53T55 220Q54 235 54 260T55 300Q60 368 87 420T161 501T274 530Q344 530 393 499T468 410T495 272V257Q495 247 489 241T472 235H116Q116 235 116 231T116 225Q118 180 137 140T191 74T274
48Q317 48 345 61T391 89T413 113Q422 126 427 128T443 131H459Q468 131 474 126T480 111Q479 97 465 77T424 36T359 3T274 -10ZM116 291H434V295Q434 345 415 385T360 448T274 472Q224 472 189 449T135 385T116 295V291ZM281 595Q271 595 265 596T250 605L141
694Q136 699 136 706Q136 725 155 725H196Q211 725 218 721T233 707L302 624Q307 619 307 611Q307 595 291 595H281Z" />
<glyph unicode="&#xe9;" horiz-adv-x="546" d="M274 -10Q177 -10 120 53T55 220Q54 235 54 260T55 300Q60 368 87 420T161 501T274 530Q344 530 393 499T468 410T495 272V257Q495 247 489 241T472 235H116Q116 235 116 231T116 225Q118 180 137 140T191 74T274
48Q317 48 345 61T391 89T413 113Q422 126 427 128T443 131H459Q468 131 474 126T480 111Q479 97 465 77T424 36T359 3T274 -10ZM116 291H434V295Q434 345 415 385T360 448T274 472Q224 472 189 449T135 385T116 295V291ZM259 595Q243 595 243 611Q243 619 248
624L317 707Q325 717 332 721T354 725H395Q414 725 414 706Q414 699 409 694L300 605Q292 598 286 597T269 595H259Z" />
<glyph unicode="&#xea;" horiz-adv-x="546" d="M274 -10Q177 -10 120 53T55 220Q54 235 54 260T55 300Q60 368 87 420T161 501T274 530Q344 530 393 499T468 410T495 272V257Q495 247 489 241T472 235H116Q116 235 116 231T116 225Q118 180 137 140T191 74T274
48Q317 48 345 61T391 89T413 113Q422 126 427 128T443 131H459Q468 131 474 126T480 111Q479 97 465 77T424 36T359 3T274 -10ZM116 291H434V295Q434 345 415 385T360 448T274 472Q224 472 189 449T135 385T116 295V291ZM152 595Q138 595 138 606Q138 614 150
626L237 711Q248 722 255 723T269 725H279Q287 725 294 724T311 711L398 626Q410 614 410 606Q410 595 396 595H379Q373 595 366 597T354 602L274 662L194 602Q190 599 183 597T169 595H152Z" />
<glyph unicode="&#xeb;" horiz-adv-x="546" d="M274 -10Q177 -10 120 53T55 220Q54 235 54 260T55 300Q60 368 87 420T161 501T274 530Q344 530 393 499T468 410T495 272V257Q495 247 489 241T472 235H116Q116 235 116 231T116 225Q118 180 137 140T191 74T274
48Q317 48 345 61T391 89T413 113Q422 126 427 128T443 131H459Q468 131 474 126T480 111Q479 97 465 77T424 36T359 3T274 -10ZM116 291H434V295Q434 345 415 385T360 448T274 472Q224 472 189 449T135 385T116 295V291ZM331 627Q321 627 315 633T309 649V687Q309
697 315 703T331 710H369Q379 710 385 704T392 687V649Q392 639 386 633T369 627H331ZM178 627Q168 627 162 633T156 649V687Q156 697 162 703T178 710H216Q226 710 232 704T239 687V649Q239 639 233 633T216 627H178Z" />
<glyph unicode="&#xec;" horiz-adv-x="223" d="M103 0Q93 0 87 6T81 22V498Q81 508 87 514T103 520H120Q130 520 136 514T142 498V22Q142 12 136 6T120 0H103ZM374 595Q364 595 358 596T343 605L234 694Q229 699 229 706Q229 725 248 725H289Q304 725 311 721T326
707L395 624Q400 619 400 611Q400 595 384 595H374Z" />
<glyph unicode="&#xed;" horiz-adv-x="223" d="M103 0Q93 0 87 6T81 22V498Q81 508 87 514T103 520H120Q130 520 136 514T142 498V22Q142 12 136 6T120 0H103ZM95 595Q79 595 79 611Q79 619 84 624L153 707Q161 717 168 721T190 725H231Q250 725 250 706Q250 699
245 694L136 605Q128 598 122 597T105 595H95Z" />
<glyph unicode="&#xee;" horiz-adv-x="223" d="M103 0Q93 0 87 6T81 22V498Q81 508 87 514T103 520H120Q130 520 136 514T142 498V22Q142 12 136 6T120 0H103ZM245 595Q231 595 231 606Q231 614 243 626L330 711Q341 722 348 723T362 725H372Q380 725 387 724T404
711L491 626Q503 614 503 606Q503 595 489 595H472Q466 595 459 597T447 602L367 662L287 602Q283 599 276 597T262 595H245Z" />
<glyph unicode="&#xef;" horiz-adv-x="223" d="M103 0Q93 0 87 6T81 22V498Q81 508 87 514T103 520H120Q130 520 136 514T142 498V22Q142 12 136 6T120 0H103ZM424 627Q414 627 408 633T402 649V687Q402 697 408 703T424 710H462Q472 710 478 704T485 687V649Q485
639 479 633T462 627H424ZM271 627Q261 627 255 633T249 649V687Q249 697 255 703T271 710H309Q319 710 325 704T332 687V649Q332 639 326 633T309 627H271Z" />
<glyph unicode="&#xf0;" horiz-adv-x="550" d="M273 -10Q201 -10 152 21T79 108T54 231Q54 300 78 354T152 439T273 470Q313 470 346 460T405 431Q382 501 340 553L244 516Q237 513 231 513Q223 513 218 517T212 531V550Q212 561 217 566T234 575L296 599Q281
613 264 628T229 658Q219 666 216 671T212 680Q212 689 217 694T232 700H252Q264 700 272 697T288 687Q307 671 324 655T357 622L450 658Q458 661 463 661Q471 661 476 657T482 643V624Q482 613 477 609T460 599L398 575Q441 520 466 440T492 232Q492 231 492 231T492
229Q492 161 467 107T394 21T273 -10ZM273 48Q325 48 360 72T413 137T431 228Q431 229 431 230T431 232Q431 282 414 323T361 388T273 412Q221 412 186 388T133 323T115 232Q115 230 115 229T115 226Q116 177 134 137T187 72T273 48Z" />
<glyph unicode="&#xf1;" horiz-adv-x="590" d="M103 0Q93 0 87 6T81 22V498Q81 508 87 514T103 520H120Q130 520 136 514T142 498V451Q169 486 207 508T310 530Q378 530 423 501T491 421T514 306V22Q514 12 508 6T492 0H475Q465 0 459 6T453 22V301Q453 381 414
426T300 472Q229 472 186 427T142 301V22Q142 12 136 6T120 0H103ZM345 590Q322 590 308 598T281 615T255 624Q244 624 239 617T230 603T214 595H194Q187 595 183 600T178 611Q178 625 183 638T198 661T221 678T249 684Q273 684 287 676T314 659T340 650Q352 650
356 657T365 672T381 680H401Q409 680 413 675T417 664Q417 650 412 637T396 613T373 596T345 590Z" />
<glyph unicode="&#xf2;" horiz-adv-x="558" d="M279 -10Q207 -10 159 20T85 102T57 218Q56 233 56 260T57 302Q59 367 84 418T158 500T279 530Q351 530 399 500T473 419T501 302Q502 287 502 260T501 218Q499 154 474 102T400 20T279 -10ZM279 48Q349 48 393 93T440
223Q441 238 441 260T440 297Q437 383 393 427T279 472Q209 472 165 428T118 297Q117 282 117 260T118 223Q121 138 165 93T279 48ZM286 595Q276 595 270 596T255 605L146 694Q141 699 141 706Q141 725 160 725H201Q216 725 223 721T238 707L307 624Q312 619 312
611Q312 595 296 595H286Z" />
<glyph unicode="&#xf3;" horiz-adv-x="558" d="M279 -10Q207 -10 159 20T85 102T57 218Q56 233 56 260T57 302Q59 367 84 418T158 500T279 530Q351 530 399 500T473 419T501 302Q502 287 502 260T501 218Q499 154 474 102T400 20T279 -10ZM279 48Q349 48 393 93T440
223Q441 238 441 260T440 297Q437 383 393 427T279 472Q209 472 165 428T118 297Q117 282 117 260T118 223Q121 138 165 93T279 48ZM262 595Q246 595 246 611Q246 619 251 624L320 707Q328 717 335 721T357 725H398Q417 725 417 706Q417 699 412 694L303 605Q295
598 289 597T272 595H262Z" />
<glyph unicode="&#xf4;" horiz-adv-x="558" d="M279 -10Q207 -10 159 20T85 102T57 218Q56 233 56 260T57 302Q59 367 84 418T158 500T279 530Q351 530 399 500T473 419T501 302Q502 287 502 260T501 218Q499 154 474 102T400 20T279 -10ZM279 48Q349 48 393 93T440
223Q441 238 441 260T440 297Q437 383 393 427T279 472Q209 472 165 428T118 297Q117 282 117 260T118 223Q121 138 165 93T279 48ZM157 595Q143 595 143 606Q143 614 155 626L242 711Q253 722 260 723T274 725H284Q292 725 299 724T316 711L403 626Q415 614 415
606Q415 595 401 595H384Q378 595 371 597T359 602L279 662L199 602Q195 599 188 597T174 595H157Z" />
<glyph unicode="&#xf5;" horiz-adv-x="558" d="M279 -10Q207 -10 159 20T85 102T57 218Q56 233 56 260T57 302Q59 367 84 418T158 500T279 530Q351 530 399 500T473 419T501 302Q502 287 502 260T501 218Q499 154 474 102T400 20T279 -10ZM279 48Q349 48 393 93T440
223Q441 238 441 260T440 297Q437 383 393 427T279 472Q209 472 165 428T118 297Q117 282 117 260T118 223Q121 138 165 93T279 48ZM327 590Q304 590 290 598T263 615T237 624Q226 624 221 617T212 603T196 595H176Q169 595 165 600T160 611Q160 625 165 638T180
661T203 678T231 684Q255 684 269 676T296 659T322 650Q334 650 338 657T347 672T363 680H383Q391 680 395 675T399 664Q399 650 394 637T378 613T355 596T327 590Z" />
<glyph unicode="&#xf6;" horiz-adv-x="558" d="M279 -10Q207 -10 159 20T85 102T57 218Q56 233 56 260T57 302Q59 367 84 418T158 500T279 530Q351 530 399 500T473 419T501 302Q502 287 502 260T501 218Q499 154 474 102T400 20T279 -10ZM279 48Q349 48 393 93T440
223Q441 238 441 260T440 297Q437 383 393 427T279 472Q209 472 165 428T118 297Q117 282 117 260T118 223Q121 138 165 93T279 48ZM336 627Q326 627 320 633T314 649V687Q314 697 320 703T336 710H374Q384 710 390 704T397 687V649Q397 639 391 633T374 627H336ZM183
627Q173 627 167 633T161 649V687Q161 697 167 703T183 710H221Q231 710 237 704T244 687V649Q244 639 238 633T221 627H183Z" />
<glyph unicode="&#xf7;" horiz-adv-x="565" d="M95 272Q85 272 79 278T73 294V308Q73 318 79 324T95 330H470Q480 330 486 324T492 308V294Q492 284 486 278T470 272H95ZM258 80Q248 80 242 86T236 102V150Q236 160 242 166T258 173H306Q316 173 322 167T329 150V102Q329
92 323 86T306 80H258ZM258 430Q248 430 242 436T236 452V500Q236 510 242 516T258 523H306Q316 523 322 517T329 500V452Q329 442 323 436T306 430H258Z" />
<glyph unicode="&#xf8;" horiz-adv-x="594" d="M297 -10Q234 -10 191 11T123 67T85 144L47 129Q40 126 34 126Q26 126 21 130T15 144V163Q15 174 20 179T37 188L76 203Q74 229 74 253T75 302Q76 343 88 383T125 457T193 510T297 530Q362 530 405 508T473 450T509
371L547 386Q555 389 560 389Q568 389 573 385T579 371V352Q579 341 574 337T557 327L518 312Q520 295 520 266T519 218Q518 177 506 137T469 63T401 10T297 -10ZM297 48Q339 48 374 64T433 118T458 218Q459 230 459 251T458 289L142 166Q158 102 201 75T297 48ZM136
226L452 349Q438 416 394 444T297 472Q255 472 220 456T161 402T136 302Q135 289 135 266T136 226Z" />
<glyph unicode="&#xf9;" horiz-adv-x="585" d="M276 -10Q208 -10 164 19T98 100T76 214V498Q76 508 82 514T98 520H115Q125 520 131 514T137 498V219Q137 48 286 48Q357 48 400 93T443 219V498Q443 508 449 514T465 520H482Q492 520 498 514T504 498V22Q504 12
498 6T482 0H465Q455 0 449 6T443 22V69Q416 34 379 12T276 -10ZM298 595Q288 595 282 596T267 605L158 694Q153 699 153 706Q153 725 172 725H213Q228 725 235 721T250 707L319 624Q324 619 324 611Q324 595 308 595H298Z" />
<glyph unicode="&#xfa;" horiz-adv-x="585" d="M276 -10Q208 -10 164 19T98 100T76 214V498Q76 508 82 514T98 520H115Q125 520 131 514T137 498V219Q137 48 286 48Q357 48 400 93T443 219V498Q443 508 449 514T465 520H482Q492 520 498 514T504 498V22Q504 12
498 6T482 0H465Q455 0 449 6T443 22V69Q416 34 379 12T276 -10ZM271 595Q255 595 255 611Q255 619 260 624L329 707Q337 717 344 721T366 725H407Q426 725 426 706Q426 699 421 694L312 605Q304 598 298 597T281 595H271Z" />
<glyph unicode="&#xfb;" horiz-adv-x="585" d="M276 -10Q208 -10 164 19T98 100T76 214V498Q76 508 82 514T98 520H115Q125 520 131 514T137 498V219Q137 48 286 48Q357 48 400 93T443 219V498Q443 508 449 514T465 520H482Q492 520 498 514T504 498V22Q504 12
498 6T482 0H465Q455 0 449 6T443 22V69Q416 34 379 12T276 -10ZM168 595Q154 595 154 606Q154 614 166 626L253 711Q264 722 271 723T285 725H295Q303 725 310 724T327 711L414 626Q426 614 426 606Q426 595 412 595H395Q389 595 382 597T370 602L290 662L210
602Q206 599 199 597T185 595H168Z" />
<glyph unicode="&#xfc;" horiz-adv-x="585" d="M276 -10Q208 -10 164 19T98 100T76 214V498Q76 508 82 514T98 520H115Q125 520 131 514T137 498V219Q137 48 286 48Q357 48 400 93T443 219V498Q443 508 449 514T465 520H482Q492 520 498 514T504 498V22Q504 12
498 6T482 0H465Q455 0 449 6T443 22V69Q416 34 379 12T276 -10ZM347 627Q337 627 331 633T325 649V687Q325 697 331 703T347 710H385Q395 710 401 704T408 687V649Q408 639 402 633T385 627H347ZM194 627Q184 627 178 633T172 649V687Q172 697 178 703T194 710H232Q242
710 248 704T255 687V649Q255 639 249 633T232 627H194Z" />
<glyph unicode="&#xfd;" horiz-adv-x="532" d="M169 -190Q161 -190 155 -184T149 -170Q149 -166 150 -162T155 -150L232 30L41 480Q35 495 35 500Q35 508 41 514T55 520H76Q86 520 91 516T99 505L267 109L439 505Q442 511 447 515T462 520H482Q490 520 496 514T502
500Q502 495 496 480L212 -175Q209 -181 204 -185T189 -190H169ZM249 595Q233 595 233 611Q233 619 238 624L307 707Q315 717 322 721T344 725H385Q404 725 404 706Q404 699 399 694L290 605Q282 598 276 597T259 595H249Z" />
<glyph unicode="&#xfe;" horiz-adv-x="581" d="M104 -190Q94 -190 88 -184T82 -168V688Q82 698 88 704T104 710H121Q131 710 137 704T143 688V451Q168 485 208 507T311 530Q370 530 410 510T475 455T512 379T525 293Q526 278 526 260T525 227Q524 183 512 141T475
65T410 11T311 -10Q249 -10 209 13T143 69V-168Q143 -178 137 -184T121 -190H104ZM305 48Q364 48 398 74T447 142T464 232Q465 260 464 288Q462 336 447 378T398 446T305 472Q248 472 213 445T162 378T143 296Q142 281 142 257T143 218Q144 178 161 139T214 74T305
48Z" />
<glyph unicode="&#xff;" horiz-adv-x="532" d="M169 -190Q161 -190 155 -184T149 -170Q149 -166 150 -162T155 -150L232 30L41 480Q35 495 35 500Q35 508 41 514T55 520H76Q86 520 91 516T99 505L267 109L439 505Q442 511 447 515T462 520H482Q490 520 496 514T502
500Q502 495 496 480L212 -175Q209 -181 204 -185T189 -190H169ZM324 627Q314 627 308 633T302 649V687Q302 697 308 703T324 710H362Q372 710 378 704T385 687V649Q385 639 379 633T362 627H324ZM171 627Q161 627 155 633T149 649V687Q149 697 155 703T171 710H209Q219
710 225 704T232 687V649Q232 639 226 633T209 627H171Z" />
<glyph unicode="&#x2013;" horiz-adv-x="577" d="M96 271Q86 271 80 277T74 293V307Q74 317 80 323T96 329H481Q491 329 497 323T503 307V293Q503 283 497 277T481 271H96Z" />
<glyph unicode="&#x2014;" horiz-adv-x="767" d="M96 271Q86 271 80 277T74 293V307Q74 317 80 323T96 329H671Q681 329 687 323T693 307V293Q693 283 687 277T671 271H96Z" />
<glyph unicode="&#x2018;" horiz-adv-x="220" d="M74 542Q67 542 63 547T59 558Q59 567 63 576L106 689Q111 699 116 704T132 710H149Q157 710 161 704T163 689L144 569Q143 557 137 550T119 542H74Z" />
<glyph unicode="&#x2019;" horiz-adv-x="213" d="M78 542Q70 542 67 548T64 563L83 683Q85 695 90 702T108 710H153Q160 710 164 705T168 694Q168 685 164 676L121 563Q117 553 112 548T95 542H78Z" />
<glyph unicode="&#x201a;" horiz-adv-x="237" d="M73 -75Q65 -75 62 -69T59 -54L78 66Q80 78 85 85T103 93H148Q155 93 159 88T163 77Q163 68 159 59L116 -54Q112 -64 107 -69T90 -75H73Z" />
<glyph unicode="&#x201c;" horiz-adv-x="354" d="M208 542Q201 542 197 547T193 558Q193 567 197 576L240 689Q245 699 250 704T266 710H283Q291 710 295 704T297 689L278 569Q277 557 271 550T253 542H208ZM74 542Q67 542 63 547T59 558Q59 567 63 576L106 689Q111
699 116 704T132 710H149Q157 710 161 704T163 689L144 569Q143 557 137 550T119 542H74Z" />
<glyph unicode="&#x201d;" horiz-adv-x="347" d="M212 542Q204 542 201 548T198 563L217 683Q219 695 224 702T242 710H287Q294 710 298 705T302 694Q302 685 298 676L255 563Q251 553 246 548T229 542H212ZM78 542Q70 542 67 548T64 563L83 683Q85 695 90 702T108
710H153Q160 710 164 705T168 694Q168 685 164 676L121 563Q117 553 112 548T95 542H78Z" />
<glyph unicode="&#x201e;" horiz-adv-x="371" d="M207 -75Q199 -75 196 -69T193 -54L212 66Q214 78 219 85T237 93H282Q289 93 293 88T297 77Q297 68 293 59L250 -54Q246 -64 241 -69T224 -75H207ZM73 -75Q65 -75 62 -69T59 -54L78 66Q80 78 85 85T103 93H148Q155
93 159 88T163 77Q163 68 159 59L116 -54Q112 -64 107 -69T90 -75H73Z" />
<glyph unicode="&#x2022;" horiz-adv-x="380" d="M190 200Q163 200 140 213T104 250T90 300Q90 328 103 350T140 386T190 400Q218 400 240 387T276 351T290 300Q290 273 277 250T241 214T190 200Z" />
<glyph unicode="&#x2039;" horiz-adv-x="354" d="M276 92Q270 92 264 95T252 104L64 286Q54 296 51 304T47 321V337Q48 345 51 353T64 372L252 554Q258 559 264 562T276 566Q285 566 290 561T296 546V529Q296 517 292 510T278 493L109 329L278 165Q288 155 292
148T296 129V112Q296 103 291 98T276 92Z" />
<glyph unicode="&#x203a;" horiz-adv-x="354" d="M78 92Q69 92 64 97T58 112V129Q58 141 62 148T76 165L245 329L76 493Q66 503 62 510T58 529V546Q58 555 63 560T78 566Q84 566 90 563T102 554L290 372Q300 362 303 354T307 337V321Q306 313 303 305T290 286L102
104Q96 99 90 96T78 92Z" />
</font>
</defs>
</svg>
