<svg xmlns="http://www.w3.org/2000/svg" viewBox="0 0 492.4 619.5"><path fill="#020203" d="M133.3 0c-3.2.1-6.6 1.5-10.5 4.5-9.5-3.6-18.7-4.9-27 2.5-12.7-1.6-16.9 1.7-20 5.7-2.8-.1-20.9-2.9-29.2 9.3-20.9-2.4-27.5 12.1-20 25.7-4.3 6.5-8.7 12.9 1.3 25.3-3.5 6.9-1.3 14.4 7 23.5-2.2 9.7 2.1 16.6 9.9 21.9-1.4 13.3 12.4 21 16.5 23.8 1.6 7.7 4.9 15 20.7 19.1 2.6 11.5 12.1 13.5 21.3 16-30.4 17.4-56.4 40.3-56.2 96.4l-4.4 7.8c-34.8 20.9-66.1 87.9-17.2 142.4 3.2 17.1 8.6 29.3 13.3 42.9 7.1 54.6 53.8 80.2 66.1 83.2 18 13.5 37.2 26.4 63.2 35.3 24.5 24.9 51 34.4 77.7 34.3h1.2c26.7 0 53.2-9.5 77.7-34.3 26-9 45.2-21.8 63.2-35.3 12.3-3 58.9-28.6 66.1-83.2 4.8-13.6 10.1-25.8 13.3-42.9 49-54.5 17.7-121.5-17.2-142.4l-4.5-7.8c.2-56.1-25.9-79-56.2-96.4 9.2-2.4 18.7-4.4 21.3-16 15.8-4 19.1-11.3 20.7-19.1 4.1-2.8 17.9-10.5 16.5-23.8 7.7-5.3 12-12.2 9.9-21.9 8.3-9.1 10.5-16.6 7-23.5 10-12.4 5.6-18.8 1.3-25.3 7.5-13.6.9-28.1-20-25.7-8.3-12.2-26.4-9.4-29.2-9.4-3.1-3.9-7.3-7.3-20-5.7-8.2-7.4-17.5-6.1-27-2.5-11.3-8.8-18.8-1.7-27.3.9-14-4.3-17.2 1.7-23.9 4.2-14.9-3.1-19.5 3.7-26.6 10.8l-.5-.2c-2.5-1.2-5.3-1.1-7.8.1-22.5 13.1-33.7 39.7-37.6 53.3-4-13.7-15.1-40.3-37.6-53.3l-.4-.2c-2.5-1.1-5.4-1-7.8.3l-.1.1c-7.2-7.1-11.7-13.9-26.6-10.8-6.7-2.5-9.8-8.5-23.5-4.1-5.6-1.7-8.9-5.6-15-5.4l-1.9-.1z"/><path fill="#6ABF4B" d="M88.9 57.7c59.7 30.3 94.4 54.8 113.4 75.7-9.7 38.4-60.5 40.2-79.1 39.1 3.8-1.7 7-3.8 8.1-7-4.7-3.3-21.2-.3-32.7-6.7 4.4-.9 6.5-1.8 8.6-5-10.9-3.4-22.6-6.4-29.5-12 3.7 0 7.2.8 12.1-2.5-9.8-5.3-20.2-9.4-28.3-17.3 5-.1 10.5 0 12.1-1.9-8.9-5.5-16.5-11.5-22.7-18.1 7.1.8 10 .1 11.8-1.1-6.8-6.8-15.3-12.6-19.4-21 5.2 1.8 10 2.5 13.5-.2-2.3-5.1-12.1-8.1-17.8-20 5.5.5 11.4 1.2 12.5 0-2.6-10.3-7-16.1-11.3-22.1 11.8-.2 29.7 0 28.9-.9l-7.3-7.4c11.5-3.1 23.3.5 31.9 3.1 3.8-3-.1-6.8-4.8-10.6 9.8 1.3 18.7 3.5 26.7 6.6 4.3-3.8-2.8-7.6-6.2-11.4 15.2 2.8 21.6 6.8 28 10.8 4.6-4.4.3-8.1-2.9-11.9 11.4 4.2 17.3 9.5 23.5 14.9 2.1-2.8 5.3-4.8 1.4-11.6 8.1 4.6 14.2 10 18.7 16.1 5-3.1 3-7.5 3-11.4 8.4 6.8 13.8 13.9 20.3 21 1.3-.9 2.5-4.2 3.5-9.2 20.1 19.2 48.5 67.6 7.3 86.8-34.9-28.6-76.8-49.3-123.3-64.8zM405.1 57.7c-59.7 30.3-94.4 54.8-113.4 75.7 9.7 38.4 60.5 40.2 79.1 39.1-3.8-1.7-7-3.8-8.1-7 4.7-3.3 21.2-.3 32.7-6.7-4.4-.9-6.5-1.8-8.6-5 10.9-3.4 22.6-6.4 29.5-12-3.7 0-7.2.8-12.1-2.5 9.8-5.2 20.2-9.3 28.3-17.2-5-.1-10.5 0-12.1-1.9 8.9-5.5 16.5-11.5 22.7-18.1-7.1.8-10 .1-11.8-1.1 6.8-6.8 15.3-12.6 19.4-21-5.2 1.8-10 2.5-13.5-.2 2.3-5.1 12.1-8.1 17.8-20-5.5.5-11.4 1.2-12.5 0 2.6-10.3 7-16.1 11.3-22.1-11.8-.2-29.7 0-28.9-.9l7.3-7.4c-11.5-3.1-23.4.5-31.9 3.1-3.8-3 .1-6.8 4.8-10.6-9.8 1.3-18.7 3.5-26.7 6.6-4.3-3.8 2.8-7.6 6.2-11.4-15.2 2.8-21.6 6.8-28 10.8-4.6-4.4-.3-8.1 2.9-11.9-11.4 4.2-17.3 9.5-23.5 14.9-2.1-2.8-5.3-4.8-1.4-11.6-8.1 4.6-14.2 10-18.7 16.1-5-3.1-3-7.5-3-11.4-8.4 6.8-13.8 13.9-20.3 21-1.3-.9-2.5-4.2-3.5-9.2-20.1 19.2-48.5 67.6-7.3 86.8 35-28.7 76.9-49.4 123.3-64.9z"/><g fill="#C31C4A"><path d="M319.2 449.1c.2 35.9-31.6 65.1-71.1 65.3-39.5.2-71.7-28.7-71.9-64.6v-.7c-.2-35.9 31.6-65.1 71.1-65.3 39.5-.2 71.7 28.7 71.9 64.6v.7zM207.7 263.5c29.6 19.1 35 62.5 11.9 96.8-23 34.3-65.7 46.7-95.4 27.6-29.6-19.1-35-62.5-11.9-96.8s65.8-46.7 95.4-27.6zM287.7 260.1c-29.6 19.1-35 62.5-11.9 96.8 23 34.3 65.7 46.7 95.4 27.6 29.6-19.1 35-62.5 11.9-96.8-23.1-34.4-65.8-46.7-95.4-27.6zM61.5 295c32-8.4 10.8 130.3-15.2 119-28.7-22.7-37.9-89.2 15.2-119zM431.1 293.3c-32-8.4-10.8 130.3 15.2 119 28.7-22.8 37.9-89.2-15.2-119zM323.8 189.7c55.2-9.2 101.1 23.1 99.3 82.1-1.8 22.6-119.6-78.7-99.3-82.1zM171.3 188c-55.2-9.2-101.1 23.1-99.3 82.1 1.9 22.6 119.7-78.8 99.3-82.1zM247.4 174.2c-32.9-.8-64.6 24.1-64.6 38.5-.1 17.6 26 35.6 64.9 36 39.6.3 64.9-14.4 65.1-32.5 0-20.5-36.2-42.3-65.4-42zM249.9 534.5c28.7-1.2 67.3 9.1 67.3 22.8.5 13.3-35 43.4-69.2 42.9-35.5 1.5-70.3-28.7-69.9-39.1-.5-15.3 43.3-27.3 71.8-26.6z"/><g><path d="M143.6 453.2c20.4 24.3 29.8 66.9 12.7 79.5-16.1 9.6-55.4 5.6-83.2-33.8-18.8-33.1-16.4-66.8-3.2-76.7 19.8-11.9 50.2 4.1 73.7 31zM349.5 445.5c-22.1 25.5-34.4 72.1-18.3 87.1 15.4 11.6 56.9 10 87.5-31.8 22.2-28.1 14.8-75 2.1-87.5-18.9-14.4-46 4-71.3 32.2z"/></g></g></svg>